<svg width="48" height="48" viewBox="0 0 48 48" fill="none" xmlns="http://www.w3.org/2000/svg">
<path d="M27.9642 32.6403C28.4287 32.6403 28.8053 32.2637 28.8053 31.7991C28.8053 31.3346 28.4287 30.958 27.9642 30.958C27.4996 30.958 27.123 31.3346 27.123 31.7991C27.123 32.2637 27.4996 32.6403 27.9642 32.6403Z" fill="white"/>
<path d="M20.0363 32.6404C20.5008 32.6404 20.8774 32.2638 20.8774 31.7993C20.8774 31.3347 20.5008 30.9581 20.0363 30.9581C19.5717 30.9581 19.1951 31.3347 19.1951 31.7993C19.1951 32.2638 19.5717 32.6404 20.0363 32.6404Z" fill="white"/>
<path d="M25.2229 34.833C25.2229 35.508 24.6754 35.6955 24 35.6955C23.3246 35.6955 22.7771 35.5106 22.7771 34.833C22.7771 34.1554 23.325 33.4552 24 33.4552C24.675 33.4552 25.2229 34.1576 25.2229 34.833Z" fill="white"/>
<path d="M25.2229 34.833C25.2229 35.508 24.6754 35.6955 24 35.6955C23.3246 35.6955 22.7771 35.5106 22.7771 34.833C22.7771 34.1554 23.325 33.4552 24 33.4552C24.675 33.4552 25.2229 34.1576 25.2229 34.833Z" fill="white"/>
<path d="M25.6833 36.8207C25.4942 36.8573 25.2986 36.8398 25.119 36.7703C24.9393 36.7008 24.7829 36.5821 24.6678 36.4277C24.5998 36.3107 24.5022 36.2138 24.3848 36.1465C24.2674 36.0792 24.1344 36.044 23.9991 36.0444C23.864 36.044 23.7311 36.0791 23.6139 36.1464C23.4966 36.2136 23.3992 36.3105 23.3313 36.4273C23.216 36.5817 23.0595 36.7005 22.8799 36.77C22.7002 36.8396 22.5046 36.8572 22.3154 36.8207C22.2301 36.8143 22.1445 36.8275 22.0651 36.8591C21.9857 36.8908 21.9145 36.9402 21.857 37.0035C21.7995 37.0668 21.7572 37.1424 21.7333 37.2245C21.7094 37.3066 21.7046 37.393 21.7191 37.4773C21.7461 37.6071 21.8161 37.724 21.9178 37.8091C22.0195 37.8942 22.1469 37.9424 22.2794 37.9461C22.5749 37.9755 22.8732 37.9464 23.1574 37.8603C23.4416 37.7742 23.706 37.6328 23.9354 37.4443C23.9527 37.4282 23.9755 37.4193 23.9991 37.4193C24.0228 37.4193 24.0456 37.4282 24.0629 37.4443C24.4757 37.7893 25.0012 37.9699 25.5389 37.9513C25.5993 37.9513 25.6608 37.9513 25.723 37.9457C25.8544 37.9419 25.9807 37.894 26.0816 37.8096C26.1824 37.7252 26.2519 37.6094 26.2788 37.4807C26.2939 37.3962 26.2895 37.3095 26.2659 37.227C26.2423 37.1445 26.2002 37.0685 26.1427 37.0048C26.0852 36.9411 26.0139 36.8914 25.9343 36.8595C25.8547 36.8276 25.7688 36.8143 25.6833 36.8207Z" fill="white"/>
<path d="M28.0164 35.4909C27.8797 35.4911 27.7476 35.4415 27.6449 35.3514C27.5421 35.2613 27.4756 35.1369 27.4579 35.0014C27.4401 34.8659 27.4724 34.7286 27.5485 34.6151C27.6246 34.5016 27.7395 34.4197 27.8716 34.3847C29.7691 33.8777 32.0765 34.2523 32.1736 34.2688C32.3185 34.2957 32.447 34.3783 32.5316 34.499C32.6162 34.6196 32.6501 34.7686 32.6259 34.914C32.6018 35.0593 32.5216 35.1894 32.4026 35.2762C32.2836 35.3631 32.1353 35.3998 31.9895 35.3784C31.9681 35.3747 29.8212 35.0286 28.1622 35.4718C28.1146 35.4844 28.0656 35.4908 28.0164 35.4909Z" fill="white"/>
<path d="M32.5457 38.5453C32.4072 38.5453 32.2736 38.494 32.1707 38.4013C32.1486 38.3825 30.7529 37.1792 28.0311 37.2512H28.0154C27.8662 37.2532 27.7223 37.1958 27.6154 37.0917C27.5085 36.9876 27.4474 36.8454 27.4454 36.6962C27.4434 36.547 27.5007 36.4031 27.6048 36.2962C27.7089 36.1893 27.8512 36.1282 28.0004 36.1262C31.2081 36.0407 32.8562 37.5035 32.9249 37.5658C33.0089 37.6422 33.0678 37.7422 33.0939 37.8527C33.1201 37.9632 33.1121 38.079 33.0712 38.1849C33.0302 38.2908 32.9582 38.3818 32.8646 38.446C32.7709 38.5102 32.66 38.5445 32.5465 38.5445L32.5457 38.5453Z" fill="white"/>
<path d="M19.9845 35.4911C19.9353 35.491 19.8862 35.4846 19.8386 35.472C18.18 35.0288 16.0328 35.3753 16.0114 35.3786C15.8656 35.4 15.7173 35.3633 15.5982 35.2764C15.4792 35.1896 15.399 35.0595 15.3749 34.9142C15.3508 34.7688 15.3847 34.6198 15.4693 34.4992C15.5538 34.3785 15.6824 34.2959 15.8273 34.269C15.9244 34.2525 18.2318 33.8783 20.1293 34.3849C20.2614 34.4199 20.3762 34.5018 20.4524 34.6153C20.5285 34.7288 20.5607 34.8661 20.543 35.0016C20.5252 35.1371 20.4588 35.2616 20.356 35.3516C20.2532 35.4417 20.1212 35.4913 19.9845 35.4911Z" fill="white"/>
<path d="M15.4542 38.5435C15.341 38.5433 15.2304 38.509 15.137 38.445C15.0436 38.381 14.9718 38.2903 14.9308 38.1847C14.8898 38.0792 14.8816 37.9637 14.9072 37.8534C14.9329 37.7432 14.9913 37.6432 15.0747 37.5666C15.1433 37.5044 16.7997 36.043 19.9992 36.127C20.1484 36.1311 20.2898 36.1943 20.3924 36.3026C20.495 36.411 20.5504 36.5557 20.5463 36.7049C20.5422 36.8541 20.4791 36.9955 20.3707 37.0981C20.2623 37.2007 20.1176 37.2561 19.9684 37.252C17.2448 37.1793 15.8434 38.3901 15.8288 38.4021C15.7255 38.4936 15.5922 38.5439 15.4542 38.5435Z" fill="white"/>
<path d="M24.0004 8.30195C23.9211 8.30188 23.842 8.29447 23.7641 8.27983C22.648 8.01689 21.6215 7.46313 20.7889 6.67483C19.8647 5.81296 19.3145 4.62366 19.2559 3.36133C19.2559 1.65133 20.4559 0.361328 22.05 0.361328C22.7685 0.362413 23.4619 0.625471 24.0004 1.1012C24.5388 0.625842 25.2321 0.362948 25.9504 0.361703C27.5434 0.361703 28.7445 1.65095 28.7445 3.3617C28.6859 4.62385 28.1358 5.81299 27.2119 6.67483C26.3798 7.46298 25.3539 8.01675 24.2385 8.27983C24.16 8.2946 24.0803 8.30201 24.0004 8.30195ZM22.0504 1.4867C21.0832 1.4867 20.3812 2.2742 20.3812 3.3617C20.44 4.30108 20.8516 5.18354 21.5336 5.8322C22.2154 6.48439 23.0556 6.94728 23.9711 7.17508C23.9903 7.17845 24.01 7.17845 24.0292 7.17508C24.9448 6.94747 25.785 6.4847 26.4667 5.83258C27.1487 5.18392 27.5604 4.30146 27.6191 3.36208C27.6191 2.27458 26.9171 1.48708 25.95 1.48708C25.691 1.48777 25.4352 1.54338 25.1993 1.65023C24.9634 1.75708 24.7529 1.91275 24.5816 2.10695C24.5088 2.18937 24.4192 2.25538 24.319 2.30063C24.2187 2.34588 24.11 2.36934 24 2.36945C23.8899 2.36947 23.781 2.34608 23.6806 2.30082C23.5802 2.25556 23.4905 2.18948 23.4176 2.10695C23.2465 1.9128 23.0362 1.75714 22.8005 1.65023C22.5648 1.54331 22.3091 1.48758 22.0504 1.4867Z" fill="white"/>
<path d="M26.8054 27.6982C26.9704 27.3187 27.798 27.3124 28.1779 27.4777C28.3555 27.5601 28.4939 27.7087 28.5635 27.8917C28.6331 28.0748 28.6283 28.2778 28.5502 28.4573C28.4721 28.6369 28.3268 28.7788 28.1455 28.8527C27.9642 28.9266 27.7611 28.9267 27.5797 28.8529C27.2002 28.6875 26.64 28.0781 26.8054 27.6982Z" fill="white"/>
<path d="M21.1938 27.6982C21.0288 27.3187 20.2011 27.3123 19.8213 27.4777C19.6436 27.56 19.5052 27.7086 19.4356 27.8917C19.3661 28.0747 19.3709 28.2777 19.449 28.4573C19.5271 28.6368 19.6723 28.7787 19.8536 28.8526C20.035 28.9266 20.238 28.9266 20.4194 28.8528C20.7989 28.6874 21.3591 28.0781 21.1938 27.6982Z" fill="white"/>
<path d="M30.9832 22.9421C31.1839 22.6541 31.392 22.3582 31.617 22.0421C32.2339 21.1725 32.9329 20.187 33.6656 19.0567C35.7577 15.8265 36.7598 13.0155 36.729 10.4617C36.7052 9.55992 36.8685 8.66293 37.2086 7.82737C37.288 7.63363 37.3809 7.44567 37.4865 7.26487C37.7665 6.83561 37.8966 6.32575 37.8564 5.81482C37.8162 5.30389 37.6081 4.82062 37.2645 4.44037C36.8583 4.00755 36.3255 3.71459 35.7424 3.60355C35.1593 3.49252 34.5561 3.56913 34.0192 3.82237C31.2188 5.11837 29.4067 7.155 27.9664 10.6331C26.7127 13.6534 26.1836 16.9361 25.7584 19.5739C25.7014 19.9275 25.6459 20.2661 25.5904 20.5972C24.5268 20.437 23.4451 20.4383 22.3819 20.601C22.3155 20.2125 22.2495 19.8135 22.1816 19.3924C21.7564 16.7542 21.2269 13.4715 19.9736 10.4509C18.531 6.9705 16.7209 4.9335 13.9204 3.6375C13.3836 3.38444 12.7804 3.30798 12.1974 3.41907C11.6144 3.53017 11.0816 3.82312 10.6755 4.25587C10.3322 4.63506 10.124 5.11715 10.0833 5.62702C10.0426 6.13689 10.1717 6.6459 10.4505 7.07475C10.5593 7.26066 10.6545 7.45416 10.7355 7.65375C11.0735 8.48656 11.2355 9.38029 11.2114 10.2787C11.1806 12.8321 12.1826 15.6431 14.2747 18.8734C15.0075 20.0032 15.7065 20.9891 16.3234 21.8587C16.5859 22.2304 16.8304 22.5757 17.0606 22.9087C14.2275 25.0616 12.0221 28.5202 10.971 32.7956C9.93975 36.9881 10.4685 40.5727 12.4987 43.1632C14.7652 46.0549 18.8497 47.6471 24.0004 47.6471C29.151 47.6471 33.2355 46.0549 35.502 43.1632C37.5322 40.5727 38.061 36.9881 37.0298 32.7956C35.9835 28.5424 33.7954 25.0972 30.9832 22.9421ZM26.8687 19.7509C27.285 17.1712 27.8025 13.9609 29.0062 11.0617C30.3484 7.8255 31.938 6.02325 34.4925 4.84087C34.8111 4.68728 35.1701 4.63848 35.5181 4.70147C35.8661 4.76446 36.1852 4.93599 36.4298 5.1915C36.616 5.39299 36.7265 5.65291 36.7424 5.92684C36.7582 6.20077 36.6785 6.47172 36.5168 6.69337C36.3848 6.9189 36.269 7.15349 36.1702 7.39537C35.7714 8.37202 35.5789 9.42061 35.6047 10.4752C35.6329 12.8002 34.6897 15.4061 32.7221 18.444C32.0025 19.5544 31.3106 20.5294 30.7001 21.39C30.4751 21.7072 30.2651 22.0057 30.0626 22.2967C29.0254 21.6288 27.8888 21.1297 26.6951 20.8181C26.7517 20.4724 26.8095 20.1191 26.8687 19.7509ZM15.2186 18.2625C13.2506 15.225 12.3079 12.6172 12.3375 10.2937C12.3635 9.24231 12.172 8.19684 11.775 7.22287C11.6741 6.97569 11.5558 6.73596 11.421 6.5055C11.2605 6.28415 11.1817 6.01394 11.1982 5.741C11.2147 5.46806 11.3254 5.20929 11.5114 5.00887C11.6661 4.84515 11.8527 4.71491 12.0598 4.62622C12.2668 4.53753 12.4899 4.49227 12.7151 4.49325C12.9688 4.49414 13.2191 4.55059 13.4486 4.65862C16.0031 5.84062 17.5924 7.64325 18.9349 10.8799C20.1379 13.7782 20.6554 16.9894 21.0724 19.5694C21.1429 20.0047 21.2111 20.4202 21.2794 20.8245C20.1133 21.1324 19.0021 21.6193 17.9854 22.2679C17.7517 21.9304 17.5072 21.5824 17.2421 21.2085C16.6301 20.3475 15.9375 19.3717 15.2186 18.2625ZM34.6162 42.4691C32.5676 45.0829 28.7974 46.5221 24 46.5221C19.2026 46.5221 15.4324 45.0829 13.3837 42.4691C11.5485 40.128 11.1041 36.9634 12.063 33.0645C13.7494 26.2076 18.5464 21.6 24 21.6C29.4536 21.6 34.2506 26.2069 35.937 33.0637C36.8959 36.9634 36.45 40.128 34.6162 42.4691Z" fill="white"/>
</svg>
