<svg width="48" height="48" viewBox="0 0 48 48" fill="none" xmlns="http://www.w3.org/2000/svg">
<path d="M24.8996 3.0752C24.7053 3.07462 24.5135 3.11872 24.3389 3.20409C24.1644 3.28947 24.0119 3.41383 23.8931 3.56758C22.9218 4.8167 21.7556 6.57958 21.7181 7.88233C21.7062 8.29265 21.7775 8.70113 21.9276 9.08317C22.0778 9.46521 22.3037 9.81291 22.5918 10.1053C22.8921 10.4128 23.2506 10.6574 23.6465 10.8248C24.0423 10.9922 24.4675 11.0791 24.8973 11.0803H24.8996C25.3294 11.0793 25.7548 10.9925 26.1507 10.8251C26.5466 10.6577 26.9052 10.413 27.2054 10.1053C27.4935 9.81289 27.7195 9.4652 27.8697 9.08317C28.0199 8.70114 28.0913 8.29266 28.0796 7.88233C28.0421 6.57995 26.8766 4.81745 25.9046 3.56758C25.7859 3.41412 25.6335 3.28994 25.4593 3.20458C25.2851 3.11922 25.0936 3.07496 24.8996 3.0752ZM26.3996 9.32158C26.2045 9.52201 25.9713 9.68133 25.7137 9.79012C25.4561 9.89891 25.1792 9.95496 24.8996 9.95496C24.6199 9.95496 24.3431 9.89891 24.0855 9.79012C23.8278 9.68133 23.5946 9.52201 23.3996 9.32158C23.2169 9.13668 23.0735 8.91676 22.9779 8.67505C22.8823 8.43333 22.8366 8.17479 22.8434 7.91495C22.8652 7.14695 23.5717 5.81495 24.7818 4.2587C24.7958 4.2407 24.8138 4.22614 24.8343 4.21613C24.8548 4.20611 24.8773 4.20091 24.9001 4.20091C24.923 4.20091 24.9455 4.20611 24.966 4.21613C24.9865 4.22614 25.0044 4.2407 25.0184 4.2587C26.2278 5.81458 26.9343 7.1462 26.9561 7.91495C26.963 8.175 26.9173 8.43377 26.8217 8.67569C26.726 8.91762 26.5825 9.1377 26.3996 9.3227V9.32158Z" fill="white"/>
<path d="M19.1553 6.29996C19.0581 6.17494 18.9335 6.07378 18.7913 6.00419C18.649 5.93461 18.4927 5.89844 18.3343 5.89844C18.1759 5.89844 18.0196 5.93461 17.8773 6.00419C17.735 6.07378 17.6105 6.17494 17.5132 6.29996C16.5416 7.55021 16.038 8.55971 16.0166 9.29996C16.0078 9.59984 16.0597 9.89841 16.1693 10.1777C16.2788 10.457 16.4437 10.7113 16.6541 10.9252C16.8728 11.149 17.1339 11.327 17.4221 11.4487C17.7104 11.5704 18.02 11.6334 18.333 11.634C18.6458 11.6332 18.9554 11.5701 19.2436 11.4484C19.5318 11.3266 19.7928 11.1486 20.0115 10.9248C20.2218 10.711 20.3867 10.4568 20.4962 10.1775C20.6058 9.8983 20.6577 9.59979 20.649 9.29996C20.6306 8.56083 20.127 7.55133 19.1553 6.29996ZM19.2067 10.1418C18.9722 10.3671 18.6596 10.4928 18.3345 10.4928C18.0093 10.4928 17.6967 10.3671 17.4622 10.1418C17.3569 10.0357 17.2742 9.90933 17.219 9.77039C17.1637 9.63146 17.1372 9.4828 17.1408 9.33333C17.1543 8.87771 17.5987 8.03883 18.3341 7.07733C19.0698 8.03921 19.5146 8.87733 19.5277 9.33333C19.5315 9.48295 19.505 9.63179 19.4499 9.77092C19.3947 9.91005 19.312 10.0366 19.2067 10.143V10.1418Z" fill="white"/>
<path d="M38.9467 43.4025L31.4587 30.6701C30.3785 28.8326 29.8089 26.7398 29.8087 24.6083V15.129C29.808 14.5657 29.584 14.0257 29.1857 13.6274C28.7873 13.229 28.2473 13.005 27.684 13.0043H15.7466C15.1833 13.005 14.6433 13.229 14.245 13.6274C13.8466 14.0257 13.6226 14.5657 13.6219 15.129V24.6083C13.6215 26.7398 13.0518 28.8325 11.9719 30.6701L4.48312 43.4025C4.22345 43.8439 4.08506 44.3461 4.08195 44.8582C4.07884 45.3704 4.21112 45.8742 4.4654 46.3187C4.71968 46.7633 5.08693 47.1327 5.52994 47.3896C5.97295 47.6466 6.476 47.7818 6.98812 47.7818H36.4425C36.9546 47.7817 37.4575 47.6463 37.9004 47.3893C38.3433 47.1324 38.7105 46.7629 38.9646 46.3184C39.2188 45.8739 39.3511 45.3701 39.3479 44.8581C39.3448 44.346 39.2064 43.8439 38.9467 43.4025ZM15.7466 14.1293H27.6832C27.9483 14.1296 28.2024 14.235 28.3898 14.4224C28.5773 14.6098 28.6827 14.864 28.683 15.129V24.6083C28.6854 26.2586 28.9998 27.8935 29.6096 29.427H13.8221C14.0813 28.7717 14.2871 28.0965 14.4375 27.408H16.725C16.8742 27.408 17.0173 27.3488 17.1227 27.2433C17.2282 27.1378 17.2875 26.9947 17.2875 26.8455C17.2875 26.6963 17.2282 26.5533 17.1227 26.4478C17.0173 26.3423 16.8742 26.283 16.725 26.283H14.637C14.7095 25.7277 14.7462 25.1683 14.7469 24.6083V23.9055H16.725C16.8742 23.9055 17.0173 23.8463 17.1227 23.7408C17.2282 23.6353 17.2875 23.4922 17.2875 23.343C17.2875 23.1938 17.2282 23.0508 17.1227 22.9453C17.0173 22.8398 16.8742 22.7805 16.725 22.7805H14.7487V15.1305C14.7486 14.8655 14.8536 14.6113 15.0407 14.4236C15.2278 14.2359 15.4816 14.1301 15.7466 14.1293ZM37.9875 45.7601C37.8331 46.0338 37.6085 46.2612 37.3367 46.4189C37.0649 46.5765 36.7559 46.6587 36.4417 46.6568H6.98812C6.67431 46.6568 6.36607 46.5739 6.0946 46.4164C5.82314 46.259 5.5981 46.0326 5.44227 45.7603C5.28644 45.4879 5.20535 45.1791 5.20721 44.8653C5.20907 44.5515 5.29382 44.2438 5.45287 43.9733L6.58199 42.0536H8.82637C8.97555 42.0536 9.11863 41.9944 9.22412 41.8889C9.32961 41.7834 9.38887 41.6403 9.38887 41.4911C9.38887 41.342 9.32961 41.1989 9.22412 41.0934C9.11863 40.9879 8.97555 40.9286 8.82637 40.9286H7.24349L8.49112 38.8069H10.6571C10.8063 38.8069 10.9494 38.7476 11.0549 38.6421C11.1604 38.5367 11.2196 38.3936 11.2196 38.2444C11.2196 38.0952 11.1604 37.9521 11.0549 37.8466C10.9494 37.7412 10.8063 37.6819 10.6571 37.6819H9.15299L10.2067 35.8901H12.3532C12.5024 35.8901 12.6455 35.8309 12.751 35.7254C12.8565 35.6199 12.9157 35.4768 12.9157 35.3276C12.9157 35.1785 12.8565 35.0354 12.751 34.9299C12.6455 34.8244 12.5024 34.7651 12.3532 34.7651H10.8686L11.7686 33.2336H13.9597C14.1089 33.2336 14.252 33.1744 14.3575 33.0689C14.463 32.9634 14.5222 32.8203 14.5222 32.6711C14.5222 32.522 14.463 32.3789 14.3575 32.2734C14.252 32.1679 14.1089 32.1086 13.9597 32.1086H12.4309L12.9416 31.2405C13.0744 31.0155 13.1974 30.7845 13.3166 30.552H30.1125C30.2314 30.7845 30.3547 31.0151 30.4875 31.2409L37.9755 43.9733C38.1366 44.243 38.2226 44.5509 38.2247 44.8651C38.2268 45.1792 38.1449 45.4883 37.9875 45.7601Z" fill="white"/>
<path d="M40.2428 7.96298C40.0727 7.96324 39.9043 7.92996 39.7471 7.86503C39.5899 7.80011 39.447 7.70481 39.3267 7.5846L38.9693 7.22685C38.8638 7.12128 38.8046 6.97813 38.8047 6.8289C38.8048 6.67967 38.8641 6.53658 38.9697 6.4311C39.0753 6.32563 39.2184 6.26642 39.3676 6.26649C39.5169 6.26656 39.66 6.32591 39.7654 6.43148L40.1224 6.78923C40.1373 6.80417 40.155 6.81603 40.1745 6.82412C40.194 6.83221 40.2149 6.83637 40.2361 6.83637C40.2572 6.83637 40.2781 6.83221 40.2976 6.82412C40.3171 6.81603 40.3348 6.80417 40.3497 6.78923L42.6259 4.7316C42.7367 4.63155 42.8826 4.57959 43.0317 4.58715C43.1807 4.59471 43.3207 4.66117 43.4207 4.77192C43.5208 4.88266 43.5728 5.02861 43.5652 5.17767C43.5576 5.32673 43.4912 5.46668 43.3804 5.56673L41.1244 7.6041C41.0083 7.71902 40.8707 7.80988 40.7194 7.87147C40.5681 7.93305 40.4061 7.96415 40.2428 7.96298Z" fill="white"/>
<path d="M39.1425 12.633C38.7243 12.6324 38.311 12.5427 37.9302 12.3698C37.5493 12.1968 37.2098 11.9447 36.9341 11.6302C36.6584 11.3156 36.453 10.946 36.3315 10.5458C36.21 10.1456 36.1752 9.72406 36.2295 9.30936C36.2323 9.29291 36.2292 9.276 36.2209 9.26156C36.2125 9.24711 36.1994 9.23603 36.1838 9.23024C35.6457 9.00947 35.1853 8.63394 34.8609 8.15124C34.5365 7.66854 34.3626 7.1004 34.3614 6.51882C34.3602 5.93723 34.5317 5.36837 34.8541 4.88434C35.1765 4.4003 35.6354 4.02286 36.1725 3.79986C36.188 3.79395 36.2009 3.7829 36.2092 3.76855C36.2175 3.75421 36.2205 3.73746 36.2179 3.72111C36.1396 3.14487 36.2342 2.55837 36.4895 2.03591C36.7449 1.51346 37.1496 1.07856 37.6524 0.786313C38.1551 0.494069 38.7333 0.357634 39.3137 0.394293C39.8941 0.430952 40.4505 0.639056 40.9125 0.992239C40.9254 1.00262 40.9415 1.00827 40.9581 1.00827C40.9746 1.00827 40.9907 1.00262 41.0036 0.992239C41.4634 0.635582 42.0187 0.423524 42.5992 0.382968C43.1796 0.342412 43.759 0.475186 44.2639 0.764444C44.7688 1.0537 45.1764 1.48641 45.4349 2.00767C45.6935 2.52893 45.7914 3.11525 45.7163 3.69224C45.7137 3.70857 45.7169 3.72527 45.7252 3.73954C45.7336 3.75381 45.7465 3.76478 45.762 3.77061C46.3013 3.98935 46.7632 4.3637 47.0889 4.84596C47.4146 5.32822 47.5894 5.89654 47.5909 6.47849V6.50624C47.5918 7.08813 47.4195 7.65713 47.0958 8.14072C46.7722 8.62431 46.3119 9.00059 45.7736 9.22161C45.7582 9.22766 45.7453 9.23882 45.7371 9.25322C45.7289 9.26762 45.7259 9.28439 45.7286 9.30074C45.806 9.87742 45.7103 10.4641 45.4537 10.9863C45.1972 11.5085 44.7913 11.9428 44.2876 12.2341C43.7839 12.5253 43.2051 12.6604 42.6245 12.6222C42.0439 12.584 41.4877 12.3742 41.0265 12.0195C41.0137 12.0089 40.9977 12.0032 40.9811 12.0032C40.9646 12.0032 40.9485 12.0089 40.9358 12.0195C40.4223 12.4167 39.7917 12.6324 39.1425 12.633ZM39.1283 1.51086C38.8695 1.51117 38.6138 1.56682 38.3783 1.67409C38.1429 1.78135 37.933 1.93774 37.763 2.13277C37.5929 2.32779 37.4666 2.55694 37.3924 2.80482C37.3182 3.05271 37.2978 3.3136 37.3328 3.56999C37.3679 3.83193 37.3157 4.09815 37.1841 4.32734C37.0524 4.55653 36.8488 4.73586 36.6049 4.83749C36.2731 4.97492 35.9896 5.20781 35.7905 5.50661C35.5913 5.80541 35.4853 6.15664 35.4861 6.51575C35.4869 6.87486 35.5943 7.22564 35.7947 7.52359C35.9952 7.82154 36.2797 8.05322 36.612 8.18924C36.8567 8.28994 37.0613 8.46872 37.1939 8.69775C37.3265 8.92679 37.3797 9.19323 37.3451 9.45561C37.2981 9.81159 37.3579 10.1735 37.5168 10.4955C37.6758 10.8174 37.9269 11.0849 38.2381 11.264C38.5493 11.443 38.9067 11.5256 39.265 11.5012C39.6232 11.4768 39.9662 11.3466 40.2503 11.127C40.46 10.9658 40.717 10.8784 40.9815 10.8784C41.246 10.8784 41.5031 10.9658 41.7128 11.127C41.9974 11.3459 42.3407 11.4753 42.699 11.4989C43.0573 11.5225 43.4145 11.4391 43.7254 11.2593C44.0362 11.0795 44.2867 10.8115 44.445 10.4892C44.6033 10.1668 44.6623 9.80476 44.6145 9.44886C44.5796 9.18667 44.6323 8.9203 44.7644 8.69114C44.8965 8.462 45.1006 8.28291 45.345 8.18174C45.6772 8.0453 45.9613 7.81307 46.1612 7.51462C46.361 7.21618 46.4674 6.86502 46.467 6.50586V6.48036C46.4657 6.12154 46.3577 5.77121 46.1566 5.47402C45.9555 5.17683 45.6705 4.94624 45.3379 4.81161C45.0929 4.7115 44.8879 4.53323 44.7548 4.30453C44.6217 4.07584 44.5679 3.80956 44.6018 3.54711C44.648 3.19105 44.5875 2.82926 44.4279 2.50765C44.2682 2.18603 44.0167 1.91908 43.7051 1.74067C43.3935 1.56225 43.0359 1.48041 42.6777 1.50553C42.3195 1.53064 41.9769 1.66158 41.6933 1.88174C41.4841 2.04361 41.2273 2.13184 40.9628 2.13272C40.6984 2.1336 40.441 2.04708 40.2308 1.88661C39.9146 1.64347 39.5271 1.51139 39.1283 1.51086Z" fill="white"/>
</svg>
