<svg width="48" height="48" viewBox="0 0 48 48" fill="none" xmlns="http://www.w3.org/2000/svg">
<path d="M22.5024 46.87H22.4957C22.3507 46.8704 22.2112 46.8148 22.1062 46.7148C22.0012 46.6148 21.9389 46.4782 21.9322 46.3334C21.9256 46.1886 21.9751 46.0468 22.0704 45.9376C22.1657 45.8284 22.2995 45.7602 22.4439 45.7472C22.4813 45.7438 22.519 45.7438 22.5564 45.7472C22.7 45.7612 22.8328 45.8297 22.9273 45.9388C23.0218 46.0479 23.0708 46.1891 23.0641 46.3332C23.0574 46.4774 22.9955 46.6134 22.8913 46.7133C22.7872 46.8131 22.6486 46.8691 22.5043 46.8696L22.5024 46.87Z" fill="white"/>
<path d="M22.5006 46.8698C20.2106 46.8645 17.9447 46.4029 15.8352 45.5117C13.7257 44.6206 11.815 43.3179 10.2149 41.6798C8.69279 40.136 7.49865 38.3004 6.70425 36.2833C5.90985 34.2662 5.53159 32.1093 5.59223 29.9422C5.80185 22.6073 12.7506 12.1845 18.5447 4.73288C19.0116 4.12867 19.6112 3.63991 20.2972 3.30439C20.9831 2.96887 21.737 2.79557 22.5006 2.79788C23.2642 2.79551 24.018 2.96879 24.7039 3.30432C25.3898 3.63985 25.9893 4.12863 26.4561 4.73288C32.2506 12.1845 39.1994 22.6073 39.409 29.9422C39.4696 32.1093 39.0914 34.2662 38.297 36.2833C37.5026 38.3004 36.3084 40.136 34.7864 41.6798C33.1862 43.3179 31.2755 44.6206 29.166 45.5117C27.0565 46.4029 24.7906 46.8645 22.5006 46.8698ZM22.5006 3.92288C21.9084 3.92085 21.3238 4.05508 20.7918 4.31518C20.2598 4.57529 19.7948 4.95429 19.4327 5.42288C14.7756 11.4154 6.92835 22.5724 6.71648 29.9745C6.66081 31.9911 7.01352 33.9981 7.7534 35.8749C8.49328 37.7517 9.60504 39.4595 11.0219 40.8956C12.5141 42.4299 14.2987 43.6494 16.2703 44.4822C18.2419 45.3149 20.3604 45.744 22.5006 45.744C24.6408 45.744 26.7594 45.3149 28.7309 44.4822C30.7025 43.6494 32.4872 42.4299 33.9794 40.8956C35.3962 39.4595 36.5079 37.7517 37.2478 35.8749C37.9877 33.9981 38.3404 31.9911 38.2847 29.9745C38.0729 22.5724 30.2256 11.4154 25.5681 5.42363C25.2062 4.95493 24.7413 4.5758 24.2093 4.31556C23.6774 4.05533 23.0928 3.92096 22.5006 3.92288Z" fill="white"/>
<path d="M28.2098 33.6665C27.6282 33.6679 27.0521 33.5542 26.5147 33.332C25.9772 33.1098 25.489 32.7834 25.0782 32.3717C24.6592 31.9542 24.3306 31.4549 24.1129 30.9049C23.8953 30.3549 23.7932 29.766 23.813 29.1748C23.8357 28.5076 23.9936 27.8519 24.2772 27.2475C24.5609 26.6431 24.9643 26.1026 25.463 25.6588C27.1542 24.1385 29.8017 23.3338 32.5445 23.5007C32.908 23.5229 33.2509 23.6772 33.5088 23.9344C33.7667 24.1916 33.9218 24.5341 33.9451 24.8975C34.1326 27.9009 33.1797 30.698 31.4003 32.3799C30.5411 33.202 29.399 33.6626 28.2098 33.6665ZM31.8192 24.6032C29.6131 24.6032 27.5536 25.2909 26.2133 26.4954C25.8288 26.837 25.5175 27.2531 25.2983 27.7185C25.0792 28.1838 24.9567 28.6888 24.9383 29.2029C24.9232 29.6412 24.9983 30.0779 25.1591 30.486C25.3199 30.894 25.5628 31.2646 25.8728 31.5748C26.5092 32.1951 27.3634 32.5411 28.2521 32.5387C29.1407 32.5362 29.993 32.1855 30.626 31.5617C32.1635 30.1063 32.9862 27.6407 32.8208 24.9662C32.8148 24.8765 32.7763 24.7922 32.7125 24.729C32.6487 24.6657 32.564 24.6279 32.4743 24.6227C32.2551 24.6097 32.0367 24.6032 31.8192 24.6032Z" fill="white"/>
<path d="M22.5003 25.7075C21.9095 25.7073 21.3251 25.5858 20.7832 25.3504C20.2413 25.115 19.7536 24.7708 19.3503 24.3391C18.8948 23.8517 18.5428 23.2769 18.3158 22.6495C18.0888 22.0222 17.9914 21.3553 18.0296 20.6892C18.1511 18.4186 19.4523 15.9762 21.5114 14.1556C21.7844 13.9148 22.1358 13.7817 22.4999 13.7813C22.8639 13.7808 23.2156 13.9131 23.4892 14.1534C25.7444 16.1461 27.0498 18.7962 26.9804 21.2435C26.9669 22.4249 26.4908 23.5539 25.6542 24.3882C24.8177 25.2226 23.6874 25.6957 22.5059 25.706H22.5003V25.7075ZM22.5003 14.9052C22.4096 14.9052 22.3221 14.9384 22.2543 14.9986C20.4168 16.6235 19.2566 18.7734 19.1508 20.7492C19.1204 21.2626 19.1945 21.7768 19.3685 22.2608C19.5425 22.7447 19.8129 23.1883 20.1633 23.5647C20.4623 23.8855 20.824 24.1414 21.226 24.3165C21.6281 24.4916 22.0618 24.5821 22.5003 24.5825C23.3889 24.571 24.2376 24.2117 24.8643 23.5815C25.4909 22.9514 25.8456 22.1006 25.8521 21.212C25.9121 19.0944 24.7484 16.7709 22.7396 14.9964C22.6734 14.9381 22.5884 14.9058 22.5003 14.9052Z" fill="white"/>
<path d="M16.7899 33.667C15.6018 33.6623 14.4608 33.2017 13.6024 32.3803C11.8215 30.6985 10.8705 27.9002 11.0561 24.898C11.0794 24.5345 11.2345 24.192 11.4924 23.9348C11.7503 23.6776 12.0932 23.5234 12.4567 23.5011C15.201 23.3346 17.847 24.1386 19.5382 25.6588C20.0366 26.1029 20.4397 26.6435 20.7231 27.248C21.0065 27.8524 21.1642 28.508 21.1867 29.1752C21.2069 29.7665 21.1051 30.3555 20.8877 30.9057C20.6703 31.4559 20.3419 31.9555 19.923 32.3732C19.5119 32.7849 19.0235 33.1112 18.4857 33.3332C17.948 33.5553 17.3716 33.6687 16.7899 33.667ZM13.1809 24.6036C12.9634 24.6036 12.7449 24.6103 12.5254 24.6238C12.4357 24.6291 12.351 24.6669 12.2872 24.7301C12.2234 24.7934 12.1849 24.8777 12.1789 24.9673C12.0135 27.6418 12.8344 30.1075 14.3737 31.5628C15.0067 32.1866 15.859 32.5374 16.7476 32.5398C17.6363 32.5423 18.4905 32.1962 19.1269 31.576C19.4371 31.2657 19.6801 30.895 19.841 30.4868C20.0018 30.0787 20.0769 29.6418 20.0617 29.2033C20.0433 28.6892 19.9207 28.1842 19.7016 27.7188C19.4825 27.2534 19.1712 26.8372 18.7867 26.4955C17.4461 25.2913 15.3862 24.6036 13.1809 24.6036Z" fill="white"/>
<path d="M40.2428 7.96298C40.0727 7.96324 39.9043 7.92996 39.7471 7.86503C39.5899 7.80011 39.447 7.70481 39.3267 7.5846L38.9693 7.22685C38.8638 7.12128 38.8046 6.97813 38.8047 6.8289C38.8048 6.67967 38.8641 6.53658 38.9697 6.4311C39.0753 6.32563 39.2184 6.26642 39.3676 6.26649C39.5169 6.26656 39.66 6.32591 39.7654 6.43148L40.1224 6.78923C40.1373 6.80417 40.155 6.81603 40.1745 6.82412C40.194 6.83221 40.2149 6.83637 40.2361 6.83637C40.2572 6.83637 40.2781 6.83221 40.2976 6.82412C40.3171 6.81603 40.3348 6.80417 40.3497 6.78923L42.6259 4.7316C42.7367 4.63155 42.8826 4.57959 43.0317 4.58715C43.1807 4.59471 43.3207 4.66117 43.4207 4.77192C43.5208 4.88266 43.5728 5.02861 43.5652 5.17767C43.5576 5.32673 43.4912 5.46668 43.3804 5.56673L41.1244 7.6041C41.0083 7.71902 40.8707 7.80988 40.7194 7.87147C40.5681 7.93305 40.4061 7.96415 40.2428 7.96298Z" fill="white"/>
<path d="M39.1425 12.633C38.7242 12.6324 38.3109 12.5427 37.9301 12.3698C37.5493 12.1968 37.2097 11.9447 36.9341 11.6302C36.6584 11.3157 36.453 10.946 36.3315 10.5458C36.21 10.1456 36.1752 9.72407 36.2295 9.30938C36.2323 9.29292 36.2292 9.27601 36.2209 9.26157C36.2125 9.24712 36.1994 9.23604 36.1837 9.23025C35.6457 9.00948 35.1853 8.63395 34.8608 8.15125C34.5364 7.66855 34.3626 7.10041 34.3614 6.51883C34.3602 5.93724 34.5317 5.36839 34.8541 4.88435C35.1765 4.40031 35.6353 4.02288 36.1725 3.79988C36.1879 3.79397 36.2009 3.78291 36.2092 3.76856C36.2174 3.75422 36.2205 3.73747 36.2179 3.72113C36.1396 3.14489 36.2341 2.55838 36.4895 2.03593C36.7449 1.51347 37.1496 1.07857 37.6523 0.786324C38.1551 0.49408 38.7333 0.357645 39.3137 0.394304C39.8941 0.430964 40.4505 0.639068 40.9125 0.99225C40.9254 1.00263 40.9415 1.00829 40.958 1.00829C40.9746 1.00829 40.9907 1.00263 41.0036 0.99225C41.4633 0.635594 42.0187 0.423536 42.5991 0.38298C43.1796 0.342424 43.759 0.475197 44.2639 0.764456C44.7688 1.05371 45.1763 1.48642 45.4349 2.00768C45.6935 2.52894 45.7914 3.11526 45.7162 3.69225C45.7137 3.70858 45.7169 3.72528 45.7252 3.73955C45.7335 3.75382 45.7465 3.7648 45.762 3.77063C46.3013 3.98936 46.7632 4.36371 47.0889 4.84597C47.4146 5.32823 47.5894 5.89655 47.5908 6.4785V6.50625C47.5918 7.08814 47.4195 7.65714 47.0958 8.14073C46.7722 8.62432 46.3119 9.0006 45.7736 9.22162C45.7582 9.22767 45.7453 9.23883 45.7371 9.25323C45.7289 9.26763 45.7259 9.2844 45.7286 9.30075C45.8059 9.87743 45.7103 10.4641 45.4537 10.9863C45.1972 11.5086 44.7913 11.9428 44.2876 12.2341C43.7839 12.5253 43.205 12.6604 42.6244 12.6222C42.0438 12.584 41.4877 12.3742 41.0265 12.0195C41.0137 12.009 40.9977 12.0032 40.9811 12.0032C40.9645 12.0032 40.9485 12.009 40.9357 12.0195C40.4223 12.4167 39.7916 12.6325 39.1425 12.633ZM39.1282 1.51088C38.8695 1.51118 38.6138 1.56683 38.3783 1.6741C38.1428 1.78136 37.933 1.93775 37.763 2.13278C37.5929 2.3278 37.4665 2.55695 37.3923 2.80484C37.3181 3.05272 37.2978 3.31361 37.3327 3.57C37.3679 3.83194 37.3156 4.09817 37.184 4.32735C37.0524 4.55654 36.8488 4.73587 36.6048 4.8375C36.2731 4.97493 35.9896 5.20782 35.7904 5.50662C35.5912 5.80542 35.4853 6.15666 35.4861 6.51576C35.4868 6.87487 35.5943 7.22565 35.7947 7.5236C35.9952 7.82155 36.2796 8.05323 36.612 8.18925C36.8567 8.28995 37.0613 8.46873 37.1939 8.69776C37.3265 8.9268 37.3796 9.19324 37.3451 9.45563C37.2981 9.8116 37.3578 10.1735 37.5168 10.4955C37.6758 10.8174 37.9268 11.0849 38.2381 11.264C38.5493 11.4431 38.9067 11.5256 39.265 11.5012C39.6232 11.4768 39.9661 11.3466 40.2502 11.127C40.4599 10.9658 40.717 10.8785 40.9815 10.8785C41.246 10.8785 41.503 10.9658 41.7127 11.127C41.9974 11.3459 42.3406 11.4754 42.6989 11.4989C43.0573 11.5225 43.4145 11.4391 43.7254 11.2593C44.0362 11.0795 44.2867 10.8115 44.445 10.4892C44.6033 10.1668 44.6623 9.80477 44.6145 9.44888C44.5796 9.18669 44.6323 8.92031 44.7644 8.69116C44.8965 8.46201 45.1006 8.28292 45.345 8.18175C45.6772 8.04531 45.9613 7.81308 46.1611 7.51463C46.3609 7.21619 46.4674 6.86503 46.467 6.50588V6.48038C46.4657 6.12155 46.3577 5.77122 46.1566 5.47403C45.9555 5.17685 45.6705 4.94625 45.3379 4.81163C45.0929 4.71151 44.8879 4.53324 44.7548 4.30455C44.6216 4.07585 44.5678 3.80957 44.6017 3.54713C44.648 3.19106 44.5875 2.82927 44.4279 2.50766C44.2682 2.18604 44.0166 1.91909 43.705 1.74068C43.3934 1.56226 43.0359 1.48042 42.6777 1.50554C42.3195 1.53065 41.9769 1.6616 41.6932 1.88175C41.4841 2.04362 41.2273 2.13185 40.9628 2.13273C40.6983 2.13361 40.441 2.04709 40.2307 1.88663C39.9146 1.64348 39.5271 1.5114 39.1282 1.51088Z" fill="white"/>
<path d="M29.201 28.258C29.1187 28.1337 28.9903 28.0472 28.8442 28.0174C28.6981 27.9877 28.5461 28.0172 28.4218 28.0994C26.5029 29.3677 24.4355 30.8414 23.0623 32.7535V20.4097C23.0623 20.2605 23.003 20.1174 22.8975 20.0119C22.792 19.9064 22.6489 19.8472 22.4998 19.8472C22.3506 19.8472 22.2075 19.9064 22.102 20.0119C21.9965 20.1174 21.9373 20.2605 21.9373 20.4097V32.7438C20.564 30.8362 18.5 29.3654 16.5845 28.0994C16.523 28.0556 16.4533 28.0245 16.3796 28.0082C16.3059 27.9918 16.2296 27.9905 16.1554 28.0042C16.0811 28.018 16.0104 28.0466 15.9474 28.0882C15.8844 28.1299 15.8305 28.1839 15.7888 28.2468C15.7471 28.3098 15.7185 28.3805 15.7047 28.4548C15.691 28.529 15.6923 28.6053 15.7086 28.679C15.725 28.7528 15.756 28.8225 15.7999 28.8839C15.8437 28.9454 15.8995 28.9975 15.9639 29.0369C17.6559 30.1552 19.4675 31.2445 20.7324 32.7183C21.5156 33.6411 21.943 34.8136 21.9373 36.0239V41.2207C21.9373 41.3699 21.9965 41.5129 22.102 41.6184C22.2075 41.7239 22.3506 41.7832 22.4998 41.7832C22.6489 41.7832 22.792 41.7239 22.8975 41.6184C23.003 41.5129 23.0623 41.3699 23.0623 41.2207V36.0318C23.0565 34.824 23.482 33.6538 24.2623 32.7318C25.5275 31.252 27.3448 30.1585 29.0413 29.0373C29.1658 28.9551 29.2525 28.8269 29.2825 28.6808C29.3125 28.5346 29.2831 28.3826 29.201 28.258Z" fill="white"/>
</svg>
