<svg width="48" height="48" viewBox="0 0 48 48" fill="none" xmlns="http://www.w3.org/2000/svg">
<path d="M42.4657 37.3374C41.4596 36.6174 40.0792 36.5578 38.6212 36.7416V27.4723C38.6202 27.0001 38.4585 26.5424 38.1627 26.1743C37.8669 25.8063 37.4547 25.5499 36.9937 25.4473V23.5247C36.9936 23.0742 36.8148 22.6423 36.4964 22.3236C36.178 22.005 35.7462 21.8257 35.2957 21.8252H14.8931C14.4429 21.8257 14.0113 22.0047 13.693 22.3231C13.3747 22.6414 13.1956 23.073 13.1951 23.5232V25.4447C12.7342 25.5472 12.3219 25.8036 12.0261 26.1717C11.7303 26.5397 11.5686 26.9975 11.5676 27.4697V34.6884C9.03974 36.2496 5.88486 38.5318 4.80974 40.1079C4.53049 40.4898 4.40033 40.9606 4.44374 41.4317C4.57049 42.9834 8.51811 46.9723 9.84599 47.4459C10.0805 47.5327 10.3283 47.5781 10.5784 47.5802C10.9558 47.575 11.3243 47.4641 11.6419 47.2599C11.874 47.1201 12.1669 46.8992 12.5044 46.6434C13.3084 46.0374 14.409 45.2076 15.4601 44.8723C17.4184 44.2479 20.3486 44.5491 22.7036 44.7909C23.7761 44.9012 24.7024 44.9964 25.4411 45.0006H25.4786C28.9826 45.0006 40.8495 42.3714 42.8351 40.6821C43.0516 40.496 43.2219 40.2622 43.3325 39.9991C43.4431 39.736 43.4911 39.4508 43.4726 39.1659C43.4531 38.8051 43.3524 38.4533 43.178 38.1367C43.0037 37.8201 42.7602 37.5469 42.4657 37.3374ZM14.3201 23.5247C14.32 23.4493 14.3348 23.3747 14.3635 23.3051C14.3922 23.2354 14.4344 23.1721 14.4876 23.1188C14.5408 23.0654 14.604 23.0231 14.6736 22.9942C14.7432 22.9652 14.8178 22.9503 14.8931 22.9502H35.2957C35.4476 22.9504 35.5933 23.0108 35.7007 23.1182C35.8081 23.2257 35.8685 23.3713 35.8687 23.5232V25.3944H14.3201V23.5247ZM12.6926 27.4723C12.6928 27.2201 12.7931 26.9782 12.9715 26.7998C13.1499 26.6214 13.3917 26.5211 13.644 26.5209H36.5449C36.7971 26.5211 37.039 26.6214 37.2174 26.7998C37.3957 26.9782 37.496 27.2201 37.4962 27.4723V36.9223C36.9007 37.0348 36.3045 37.1717 35.7274 37.3037C35.5575 37.3412 35.3899 37.3809 35.2237 37.4162C35.2825 37.2709 35.3269 37.1201 35.3565 36.9662C35.4568 36.4261 35.3789 35.8679 35.1346 35.3759C34.8902 34.8839 34.4926 34.4845 34.0016 34.2381C32.8204 33.5724 28.7711 32.3773 26.5016 31.8467C21.1391 30.5927 17.0062 31.9869 14.3636 33.1442C13.792 33.407 13.2341 33.6985 12.6919 34.0176L12.6926 27.4723ZM42.1069 39.8278C40.4494 41.2378 28.9642 43.8778 25.485 43.8778H25.4475C24.7639 43.8741 23.8627 43.7814 22.8195 43.6742C20.3602 43.4218 17.3002 43.1072 15.1192 43.8032C13.8855 44.1958 12.696 45.0928 11.8279 45.7472C11.5136 45.9842 11.2421 46.1889 11.0602 46.2988C10.9407 46.3856 10.8006 46.4396 10.6537 46.4553C10.5068 46.471 10.3584 46.448 10.2232 46.3884C9.18899 46.0194 5.64561 42.3384 5.56424 41.3424C5.54156 41.128 5.60405 40.9132 5.73824 40.7443C7.16849 38.6477 12.9139 35.0091 14.8132 34.1769C17.1658 33.0895 19.7217 32.512 22.3132 32.4823C23.6378 32.4847 24.9577 32.64 26.2466 32.9451C28.6957 33.5177 32.4551 34.6607 33.4507 35.2206C33.7335 35.3526 33.965 35.5737 34.11 35.85C34.2549 36.1263 34.3051 36.4426 34.2529 36.7502C34.1989 37.0272 34.0564 37.2792 33.8467 37.468C33.6369 37.6569 33.3715 37.7724 33.0904 37.7972C32.1214 37.8436 31.1507 37.7567 30.2055 37.5388C28.443 37.2317 26.4431 36.8837 24.7534 37.7638C24.621 37.8327 24.5214 37.9513 24.4765 38.0936C24.4316 38.2359 24.4451 38.3903 24.5139 38.5226C24.5828 38.655 24.7014 38.7546 24.8437 38.7995C24.986 38.8444 25.1404 38.8309 25.2727 38.7621C26.625 38.0589 28.3477 38.3589 30.0127 38.6496C30.8535 38.8224 31.7072 38.9245 32.565 38.9548C32.7832 38.9548 33.348 38.9038 33.4057 38.8974C34.2711 38.7777 35.1295 38.6117 35.9771 38.4002C38.1221 37.9101 40.5544 37.3543 41.8102 38.2532C41.9661 38.3636 42.0955 38.5074 42.189 38.674C42.2825 38.8406 42.3377 39.026 42.3506 39.2166C42.3599 39.3304 42.3428 39.4448 42.3005 39.5508C42.2582 39.6568 42.1919 39.7517 42.1069 39.8278Z" fill="white"/>
<path d="M28.2807 16.6217C27.8392 16.6225 27.4019 16.536 26.994 16.367C26.5861 16.1981 26.2157 15.9501 25.904 15.6374C25.5858 15.32 25.3363 14.9406 25.171 14.5227C25.0057 14.1047 24.9282 13.6573 24.9432 13.2081C24.9601 12.7042 25.0791 12.209 25.293 11.7524C25.5068 11.2959 25.8112 10.8875 26.1875 10.552C27.4625 9.40749 29.3701 8.82399 31.4277 8.94999C31.7291 8.96825 32.0134 9.09605 32.2271 9.30933C32.4408 9.52262 32.5692 9.80666 32.588 10.108C32.7252 12.3276 32.0184 14.3984 30.6972 15.6479C30.0464 16.2703 29.1813 16.6189 28.2807 16.6217ZM26.6986 14.8427C27.131 15.2629 27.7108 15.4969 28.3136 15.4946C28.9165 15.4923 29.4945 15.2538 29.9236 14.8304C31.0055 13.8074 31.5811 12.0685 31.4645 10.1777C31.4624 10.1506 31.4505 10.1252 31.431 10.1062C31.4116 10.0871 31.3859 10.0758 31.3587 10.0742C29.6255 9.96924 27.9755 10.4597 26.939 11.3897C26.6766 11.623 26.4642 11.9069 26.3144 12.2244C26.1647 12.542 26.0809 12.8865 26.0679 13.2374C26.0573 13.5337 26.1079 13.829 26.2164 14.1049C26.3249 14.3808 26.4891 14.6315 26.6986 14.8412V14.8427Z" fill="white"/>
<path d="M19.9825 16.7252C18.8028 16.7208 17.6698 16.2636 16.8175 15.4479C15.052 13.7795 14.1081 11.0045 14.2922 8.02292C14.3156 7.66142 14.4699 7.32082 14.7264 7.06498C14.9828 6.80913 15.3238 6.65561 15.6854 6.63317C18.4064 6.46592 21.0329 7.26655 22.711 8.77443C23.205 9.21507 23.6046 9.7513 23.8856 10.3507C24.1665 10.9501 24.323 11.6003 24.3456 12.2619C24.3655 12.8489 24.2643 13.4337 24.0485 13.98C23.8326 14.5262 23.5066 15.0222 23.0909 15.437C22.6833 15.8462 22.1989 16.1706 21.6654 16.3917C21.1319 16.6128 20.56 16.7261 19.9825 16.7252ZM16.4031 7.73642C16.1881 7.73642 15.9719 7.74305 15.7544 7.7563C15.6666 7.76171 15.5839 7.79901 15.5217 7.86117C15.4596 7.92333 15.4223 8.00606 15.4169 8.0938C15.253 10.7443 16.066 13.1882 17.5919 14.6304C18.2187 15.2478 19.0625 15.5949 19.9423 15.5974C20.8221 15.5998 21.6678 15.2574 22.2981 14.6435C22.6052 14.3364 22.8458 13.9693 23.0049 13.5651C23.164 13.1609 23.2382 12.7283 23.2229 12.2942C23.2048 11.7851 23.0836 11.2849 22.8667 10.824C22.6497 10.363 22.3415 9.95091 21.9606 9.61255C20.6312 8.4178 18.5894 7.73642 16.4031 7.73642Z" fill="white"/>
<path d="M39.7264 3.2733L38.8879 2.81242C38.8365 2.78425 38.7942 2.74196 38.7661 2.69055L38.3067 1.85055C38.1832 1.62528 38.0015 1.43734 37.7805 1.30643C37.5595 1.17552 37.3073 1.10645 37.0504 1.10645C36.7936 1.10645 36.5414 1.17552 36.3204 1.30643C36.0994 1.43734 35.9176 1.62528 35.7942 1.85055L35.3326 2.69242C35.3045 2.74381 35.2622 2.786 35.2107 2.81392L34.3711 3.2733C34.1458 3.39674 33.9579 3.57849 33.8269 3.7995C33.696 4.02052 33.627 4.27267 33.627 4.52955C33.627 4.78642 33.696 5.03857 33.8269 5.25959C33.9579 5.48061 34.1458 5.66235 34.3711 5.7858L35.2107 6.2448C35.2623 6.27285 35.3047 6.31516 35.3329 6.36667L35.7919 7.20667C35.9154 7.43194 36.0971 7.61988 36.3181 7.75079C36.5392 7.8817 36.7913 7.95077 37.0482 7.95077C37.3051 7.95077 37.5572 7.8817 37.7782 7.75079C37.9992 7.61988 38.181 7.43194 38.3044 7.20667L38.7638 6.3663C38.7921 6.31506 38.8344 6.27292 38.8857 6.2448L39.7257 5.7858C39.9508 5.66227 40.1387 5.48049 40.2695 5.25949C40.4003 5.03848 40.4694 4.78638 40.4694 4.52955C40.4694 4.27272 40.4003 4.02061 40.2695 3.79961C40.1387 3.5786 39.9508 3.39683 39.7257 3.2733H39.7264ZM39.1879 4.79992L38.3483 5.25892C38.1078 5.39022 37.9102 5.58797 37.7791 5.82855L37.3197 6.66817C37.2932 6.71651 37.2542 6.75683 37.2067 6.78492C37.1593 6.81301 37.1052 6.82783 37.0501 6.82783C36.9949 6.82783 36.9408 6.81301 36.8934 6.78492C36.8459 6.75683 36.8069 6.71651 36.7804 6.66817L36.3214 5.82892C36.1902 5.58822 35.9924 5.39035 35.7518 5.25892L34.9107 4.79992C34.8623 4.77342 34.822 4.73441 34.7939 4.68697C34.7658 4.63954 34.751 4.58542 34.751 4.5303C34.751 4.47517 34.7658 4.42106 34.7939 4.37362C34.822 4.32619 34.8623 4.28718 34.9107 4.26067L35.7503 3.80167C35.9908 3.67028 36.1885 3.47256 36.3199 3.23205L36.7789 2.39242C36.8054 2.34409 36.8444 2.30376 36.8919 2.27568C36.9393 2.24759 36.9934 2.23277 37.0486 2.23277C37.1037 2.23277 37.1578 2.24759 37.2052 2.27568C37.2527 2.30376 37.2917 2.34409 37.3182 2.39242L37.7772 3.23167C37.9084 3.47238 38.1062 3.67025 38.3468 3.80167L39.1864 4.26067C39.2348 4.28718 39.2751 4.32619 39.3032 4.37362C39.3313 4.42106 39.3461 4.47517 39.3461 4.5303C39.3461 4.58542 39.3313 4.63954 39.3032 4.68697C39.2751 4.73441 39.2348 4.77342 39.1864 4.79992H39.1879Z" fill="white"/>
<path d="M28.7119 13.44L28.6594 13.4269C28.7183 13.386 28.7745 13.3429 28.8349 13.3031C28.8997 13.2639 28.9559 13.2119 29.0001 13.1504C29.0444 13.0889 29.0757 13.0191 29.0923 12.9452C29.1089 12.8713 29.1104 12.7948 29.0967 12.7203C29.083 12.6458 29.0544 12.5748 29.0126 12.5116C28.9708 12.4485 28.9167 12.3944 28.8534 12.3526C28.7902 12.3109 28.7192 12.2823 28.6447 12.2687C28.5702 12.2551 28.4937 12.2566 28.4198 12.2733C28.3459 12.2899 28.2761 12.3213 28.2147 12.3656C27.8343 12.6173 27.4726 12.8962 27.1324 13.2L26.9779 13.3417C25.7917 14.4565 24.9502 15.8881 24.5532 17.4667C23.9677 15.8811 23.0947 14.4171 21.978 13.1482C21.9443 13.095 21.6627 12.8017 21.5655 12.7012L21.7669 11.2631C21.7835 11.1174 21.7425 10.971 21.6527 10.855C21.5628 10.7391 21.4313 10.6628 21.286 10.6425C21.1408 10.6222 20.9933 10.6593 20.8751 10.7461C20.7569 10.8329 20.6773 10.9625 20.6532 11.1071L20.5594 11.775C20.3025 11.5657 20.0445 11.3689 19.7862 11.1979C19.6619 11.1226 19.5133 11.0983 19.3715 11.1301C19.2297 11.162 19.1058 11.2474 19.0256 11.3686C18.9454 11.4898 18.9152 11.6373 18.9414 11.7802C18.9676 11.9232 19.048 12.0504 19.1659 12.1354C19.561 12.401 19.9352 12.6965 20.2853 13.0192L19.413 13.1175C19.27 13.1332 19.1384 13.2032 19.0454 13.313C18.9523 13.4228 18.9049 13.5641 18.9129 13.7078C18.9209 13.8515 18.9836 13.9867 19.0882 14.0855C19.1929 14.1843 19.3314 14.2393 19.4753 14.2391C19.4963 14.2391 21.2727 14.0396 21.2727 14.0396C22.8683 15.9041 24.1125 18.4924 24.1125 21.1627V22.3875C24.1125 22.5367 24.1718 22.6798 24.2773 22.7852C24.3828 22.8907 24.5258 22.95 24.675 22.95C24.8242 22.95 24.9673 22.8907 25.0728 22.7852C25.1783 22.6798 25.2375 22.5367 25.2375 22.3875V21.1612C25.2375 18.1286 25.9898 15.9135 27.5832 14.3186L28.4457 14.5305C28.4897 14.5415 28.5349 14.547 28.5803 14.547C28.7175 14.5467 28.85 14.4961 28.9526 14.405C29.0552 14.3138 29.1209 14.1882 29.1374 14.0519C29.1538 13.9157 29.1199 13.7781 29.0419 13.6651C28.964 13.5521 28.8474 13.4715 28.7142 13.4385L28.7119 13.44Z" fill="white"/>
<path d="M8.82735 19.7431C8.61653 19.7431 8.40958 19.6864 8.22821 19.579C8.04684 19.4715 7.89772 19.3172 7.79648 19.1323L7.47323 18.5409L6.86198 18.1966C6.67676 18.0955 6.5222 17.9464 6.41451 17.765C6.30683 17.5835 6.25 17.3764 6.25 17.1654C6.25 16.9544 6.30683 16.7473 6.41451 16.5658C6.5222 16.3843 6.67676 16.2352 6.86198 16.1341L7.45373 15.8105L7.7976 15.1989C7.8987 15.0137 8.04781 14.8591 8.22927 14.7514C8.41073 14.6437 8.61784 14.5869 8.82885 14.5869C9.03986 14.5869 9.24697 14.6437 9.42843 14.7514C9.60989 14.8591 9.759 15.0137 9.8601 15.1989L10.1834 15.7903L10.7946 16.1334C10.9798 16.2345 11.1344 16.3836 11.2421 16.5651C11.3498 16.7465 11.4066 16.9536 11.4066 17.1646C11.4066 17.3756 11.3498 17.5828 11.2421 17.7642C11.1344 17.9457 10.9798 18.0948 10.7946 18.1959L10.2036 18.5195L9.86048 19.1311C9.75914 19.3166 9.60971 19.4712 9.42791 19.5789C9.24611 19.6866 9.03866 19.7434 8.82735 19.7431ZM8.82735 15.7138C8.81826 15.713 8.80918 15.7152 8.80137 15.7199C8.79357 15.7246 8.78744 15.7316 8.78385 15.74L8.45948 16.3321C8.35208 16.5296 8.19014 16.6919 7.99298 16.7998L7.40123 17.1234C7.39295 17.1272 7.38604 17.1334 7.38141 17.1413C7.37679 17.1491 7.37467 17.1582 7.37535 17.1673C7.37462 17.1764 7.37671 17.1854 7.38134 17.1933C7.38597 17.2012 7.39292 17.2074 7.40123 17.2111L7.99298 17.5351C8.19049 17.6428 8.35273 17.8052 8.46023 18.0028L8.78348 18.593C8.7936 18.6121 8.86185 18.6118 8.87123 18.593L9.19448 17.9998C9.3024 17.8026 9.46455 17.6404 9.66173 17.5325L10.2535 17.2093C10.2618 17.2054 10.2687 17.1991 10.2734 17.1912C10.2781 17.1833 10.2803 17.1742 10.2797 17.165C10.2804 17.1559 10.2783 17.1468 10.2736 17.1389C10.2689 17.131 10.2619 17.1248 10.2535 17.1211L9.66173 16.7998C9.46507 16.6919 9.30324 16.5302 9.19523 16.3336L8.87123 15.7411C8.86796 15.7323 8.86193 15.7247 8.85404 15.7195C8.84614 15.7143 8.83679 15.7118 8.82735 15.7123V15.7138Z" fill="white"/>
</svg>
