<svg width="91" height="73" viewBox="0 0 91 73" fill="none" xmlns="http://www.w3.org/2000/svg">
<path fill-rule="evenodd" clip-rule="evenodd" d="M45 0L46 0L45.8308 32C47.7204 22.5 54.3632 20.214 57.9999 20L57.9999 21.7271C54.3439 21.9424 46.7059 25.2687 45.8308 37L45.4999 36.9752L45 37C44.1249 25.2687 36.6561 22.2154 33 22L33 20C36.4866 20.2052 43.0764 22.6159 45 32L45 0Z" fill="#45726C"/>
<path d="M23.4218 53L23.9018 55.34C23.7818 55.1533 23.6085 54.94 23.3818 54.7C23.1685 54.46 22.9285 54.2333 22.6618 54.02C22.4085 53.7933 22.1285 53.6067 21.8218 53.46C21.5285 53.3 21.2418 53.22 20.9618 53.22H17.5218C17.1351 53.22 16.8351 53.32 16.6218 53.52C16.4085 53.7067 16.3018 53.9733 16.3018 54.32V65.66C16.3018 66.0067 16.4085 66.28 16.6218 66.48C16.8351 66.68 17.1351 66.78 17.5218 66.78H20.6218C21.0485 66.78 21.4418 66.7133 21.8018 66.58C22.1618 66.4333 22.4818 66.2533 22.7618 66.04C23.0551 65.8133 23.3085 65.5733 23.5218 65.32C23.7351 65.0533 23.9151 64.8 24.0618 64.56L23.4218 67H13.7418V66.94C13.8351 66.94 13.9418 66.9 14.0618 66.82C14.1951 66.74 14.3085 66.64 14.4018 66.52C14.5085 66.3867 14.5951 66.2467 14.6618 66.1C14.7418 65.9533 14.7818 65.8067 14.7818 65.66V54.32C14.7818 54.1867 14.7418 54.0467 14.6618 53.9C14.5951 53.74 14.5085 53.6 14.4018 53.48C14.3085 53.36 14.1951 53.26 14.0618 53.18C13.9418 53.1 13.8351 53.06 13.7418 53.06V53H23.4218ZM18.5818 59.84C19.3151 59.8 19.8951 59.7533 20.3218 59.7C20.7485 59.6333 21.0751 59.5467 21.3018 59.44C21.5418 59.3333 21.7018 59.2 21.7818 59.04C21.8618 58.8667 21.9218 58.6467 21.9618 58.38H22.0018V61.52H21.9618C21.9218 61.24 21.8551 61 21.7618 60.8C21.6818 60.6 21.5285 60.44 21.3018 60.32C21.0751 60.1867 20.7485 60.0867 20.3218 60.02C19.8951 59.94 19.3151 59.88 18.5818 59.84ZM24.4198 67V66.94C24.8064 66.8733 25.1331 66.7333 25.3998 66.52C25.6664 66.2933 25.8931 66.0533 26.0798 65.8L28.2798 62.42L26.0998 58.96C26.0198 58.8267 25.9064 58.7 25.7598 58.58C25.6264 58.46 25.4864 58.36 25.3398 58.28C25.1931 58.1867 25.0531 58.1133 24.9198 58.06C24.7864 58.0067 24.6798 57.98 24.5998 57.98V57.92H28.4798V57.98C28.2131 58.06 28.0331 58.2133 27.9398 58.44C27.8598 58.6667 27.8664 58.8533 27.9598 59L29.3198 61.2C29.4264 61.3733 29.5131 61.5067 29.5798 61.6C29.6464 61.68 29.7064 61.72 29.7598 61.72C29.8264 61.72 29.8931 61.68 29.9598 61.6C30.0264 61.5067 30.1131 61.3733 30.2198 61.2L31.5998 59.08C31.6531 58.9867 31.6598 58.88 31.6198 58.76C31.5931 58.6267 31.5331 58.5067 31.4398 58.4C31.3464 58.28 31.2331 58.18 31.0998 58.1C30.9798 58.02 30.8598 57.98 30.7398 57.98V57.92H33.4598V57.98C33.0731 58.0467 32.7464 58.1933 32.4798 58.42C32.2131 58.6333 31.9864 58.8667 31.7998 59.12L29.8598 62.08L32.2598 65.96C32.3398 66.0933 32.4464 66.22 32.5798 66.34C32.7264 66.46 32.8731 66.5667 33.0198 66.66C33.1664 66.74 33.3064 66.8067 33.4398 66.86C33.5864 66.9133 33.6998 66.94 33.7798 66.94V67H29.9798V66.94C30.2464 66.86 30.4131 66.7067 30.4798 66.48C30.5598 66.2533 30.5464 66.0667 30.4398 65.92L28.7198 63.14C28.5598 62.8733 28.4464 62.74 28.3798 62.74C28.3131 62.74 28.1864 62.8933 27.9998 63.2L26.2798 65.84C26.2264 65.9467 26.2131 66.06 26.2398 66.18C26.2798 66.3 26.3464 66.42 26.4398 66.54C26.5331 66.6467 26.6398 66.74 26.7598 66.82C26.8931 66.9 27.0198 66.94 27.1398 66.94V67H24.4198ZM34.6388 72.2V72.14C34.7322 72.14 34.8322 72.12 34.9388 72.08C35.0455 72.0533 35.1455 71.9933 35.2388 71.9C35.3322 71.82 35.4055 71.7 35.4588 71.54C35.5122 71.38 35.5388 71.1733 35.5388 70.92V59.92C35.5388 59.64 35.5055 59.4533 35.4388 59.36C35.3855 59.2667 35.1922 59.22 34.8588 59.22H34.7588V59.18L36.9188 57.92H37.0388V59.64C37.3322 59.04 37.7455 58.58 38.2788 58.26C38.8122 57.9267 39.4122 57.7467 40.0788 57.72C40.8122 57.6933 41.4455 57.7867 41.9788 58C42.5122 58.2133 42.9522 58.52 43.2988 58.92C43.6455 59.32 43.8988 59.8067 44.0588 60.38C44.2322 60.9533 44.3188 61.58 44.3188 62.26C44.3188 63.0067 44.2122 63.6867 43.9988 64.3C43.7988 64.9 43.4988 65.42 43.0988 65.86C42.6988 66.2867 42.2055 66.62 41.6188 66.86C41.0322 67.1 40.3588 67.22 39.5988 67.22C39.0922 67.22 38.6255 67.1467 38.1988 67C37.7722 66.84 37.3855 66.5867 37.0388 66.24V70.92C37.0388 71.1733 37.0722 71.38 37.1388 71.54C37.2055 71.7 37.2855 71.82 37.3788 71.9C37.4855 71.9933 37.5922 72.0533 37.6988 72.08C37.8055 72.12 37.8988 72.14 37.9788 72.14V72.2H34.6388ZM37.0388 65.74C37.2922 66.1667 37.6255 66.4867 38.0388 66.7C38.4655 66.9 38.9122 67 39.3788 67C40.0055 67 40.5322 66.8667 40.9588 66.6C41.3855 66.32 41.7255 65.9667 41.9788 65.54C42.2455 65.1 42.4322 64.6133 42.5388 64.08C42.6588 63.5467 42.7188 63.0133 42.7188 62.48C42.7188 62.0267 42.6788 61.54 42.5988 61.02C42.5322 60.5 42.3922 60.02 42.1788 59.58C41.9655 59.1267 41.6655 58.7533 41.2788 58.46C40.9055 58.1533 40.4122 58 39.7988 58C39.3588 58 38.9655 58.1133 38.6188 58.34C38.2855 58.5667 37.9988 58.8467 37.7588 59.18C37.5188 59.5133 37.3388 59.88 37.2188 60.28C37.0988 60.68 37.0388 61.0467 37.0388 61.38V65.74ZM45.7521 67V66.94C45.8454 66.94 45.9454 66.9267 46.0521 66.9C46.1588 66.86 46.2588 66.8 46.3521 66.72C46.4454 66.6267 46.5188 66.5 46.5721 66.34C46.6254 66.18 46.6521 65.9733 46.6521 65.72V55.38C46.6521 55.1133 46.6188 54.9267 46.5521 54.82C46.4988 54.7133 46.3054 54.6667 45.9721 54.68H45.8721V54.64L48.0321 53H48.1521V65.72C48.1521 65.9733 48.1854 66.18 48.2521 66.34C48.3188 66.5 48.3988 66.6267 48.4921 66.72C48.5988 66.8 48.7054 66.86 48.8121 66.9C48.9188 66.9267 49.0121 66.94 49.0921 66.94V67H45.7521ZM54.7527 57.7C55.7527 57.7 56.5994 57.9133 57.2927 58.34C57.9861 58.7533 58.5061 59.3267 58.8527 60.06C59.4527 59.7 60.0727 59.34 60.7127 58.98C61.3527 58.6067 61.9794 58.2533 62.5927 57.92H62.7727V60.18C62.9461 59.9 63.1394 59.6133 63.3527 59.32C63.5794 59.0267 63.8261 58.7667 64.0927 58.54C64.3594 58.3 64.6527 58.1067 64.9727 57.96C65.2927 57.8 65.6394 57.72 66.0127 57.72C66.2394 57.72 66.4861 57.7533 66.7527 57.82C67.0194 57.8733 67.2194 58 67.3527 58.2V59.94C67.3261 59.8467 67.2594 59.7333 67.1527 59.6C67.0594 59.4667 66.9394 59.3467 66.7927 59.24C66.6461 59.12 66.4727 59.02 66.2727 58.94C66.0727 58.86 65.8527 58.82 65.6127 58.82C65.4261 58.82 65.2261 58.84 65.0127 58.88C64.8127 58.9067 64.5994 58.98 64.3727 59.1C64.1461 59.2067 63.9061 59.3667 63.6527 59.58C63.4127 59.78 63.1594 60.0467 62.8927 60.38V65.72C62.8927 65.9733 62.9261 66.18 62.9927 66.34C63.0594 66.5 63.1394 66.6267 63.2327 66.72C63.3394 66.8 63.4461 66.86 63.5527 66.9C63.6594 66.9267 63.7527 66.94 63.8327 66.94V67H60.4927V66.94C60.5861 66.94 60.6861 66.9267 60.7927 66.9C60.8994 66.86 60.9994 66.8 61.0927 66.72C61.1861 66.6267 61.2594 66.5 61.3127 66.34C61.3661 66.18 61.3927 65.9733 61.3927 65.72V59.74C61.3927 59.62 61.3927 59.5067 61.3927 59.4C61.3927 59.2933 61.3794 59.2067 61.3527 59.14C61.3261 59.06 61.2794 59.0133 61.2127 59C61.1594 58.9867 61.0727 59.0133 60.9527 59.08C60.5394 59.32 60.0861 59.5867 59.5927 59.88C59.1127 60.1733 58.6127 60.4533 58.0927 60.72C57.5727 60.9733 57.0394 61.1933 56.4927 61.38C55.9594 61.5667 55.4461 61.6667 54.9527 61.68C54.5394 61.6933 54.1794 61.6533 53.8727 61.56C53.5794 61.4533 53.3327 61.3133 53.1327 61.14C52.9327 60.9667 52.7861 60.7733 52.6927 60.56C52.5994 60.3333 52.5527 60.1 52.5527 59.86C52.5527 59.5267 52.6327 59.2133 52.7927 58.92C52.9527 58.6267 53.1861 58.38 53.4927 58.18C53.1727 58.3133 52.8994 58.5067 52.6727 58.76C52.4461 59.0133 52.2594 59.3067 52.1127 59.64C51.9794 59.96 51.8794 60.3067 51.8127 60.68C51.7461 61.04 51.7127 61.4067 51.7127 61.78C51.7127 62.2733 51.7661 62.82 51.8727 63.42C51.9794 64.02 52.1527 64.5867 52.3927 65.12C52.6461 65.64 52.9794 66.08 53.3927 66.44C53.8061 66.8 54.3261 66.98 54.9527 66.98C55.4861 66.98 55.9394 66.88 56.3127 66.68C56.6861 66.48 56.9861 66.2133 57.2127 65.88C57.4394 65.5333 57.5994 65.14 57.6927 64.7C57.7994 64.26 57.8527 63.8067 57.8527 63.34C57.8527 63.0467 57.8327 62.7133 57.7927 62.34C57.7527 61.9667 57.6927 61.6 57.6127 61.24L59.0327 60.48C59.1394 60.7867 59.2194 61.1133 59.2727 61.46C59.3261 61.7933 59.3527 62.14 59.3527 62.5C59.3527 63.2067 59.2461 63.8533 59.0327 64.44C58.8327 65.0133 58.5327 65.5067 58.1327 65.92C57.7461 66.3333 57.2661 66.6533 56.6927 66.88C56.1327 67.1067 55.4927 67.22 54.7727 67.22C54.0527 67.22 53.4061 67.1067 52.8327 66.88C52.2727 66.6533 51.7927 66.3333 51.3927 65.92C51.0061 65.5067 50.7061 65.0133 50.4927 64.44C50.2927 63.8533 50.1927 63.2067 50.1927 62.5C50.1927 61.82 50.2994 61.1867 50.5127 60.6C50.7261 60.0133 51.0261 59.5067 51.4127 59.08C51.8127 58.64 52.2927 58.3 52.8527 58.06C53.4127 57.82 54.0461 57.7 54.7527 57.7ZM52.7927 59.78C52.7927 60.0067 52.8394 60.2267 52.9327 60.44C53.0261 60.64 53.1594 60.82 53.3327 60.98C53.5194 61.14 53.7461 61.2667 54.0127 61.36C54.2794 61.4533 54.5927 61.4933 54.9527 61.48C55.3794 61.4533 55.7994 61.38 56.2127 61.26C56.6394 61.14 57.0661 60.98 57.4927 60.78C57.3861 60.42 57.2461 60.0667 57.0727 59.72C56.9127 59.3733 56.7127 59.0733 56.4727 58.82C56.2461 58.5533 55.9794 58.3467 55.6727 58.2C55.3661 58.0533 55.0127 57.9867 54.6127 58C54.2927 58.0267 54.0194 58.1 53.7927 58.22C53.5661 58.3267 53.3794 58.4667 53.2327 58.64C53.0861 58.8133 52.9727 59 52.8927 59.2C52.8261 59.4 52.7927 59.5933 52.7927 59.78ZM68.9749 60.2C69.3616 59.4133 69.9216 58.8067 70.6549 58.38C71.3883 57.94 72.2083 57.72 73.1149 57.72C73.7949 57.72 74.3816 57.8333 74.8749 58.06C75.3683 58.2733 75.7616 58.5667 76.0549 58.94C76.3483 59.3 76.5483 59.72 76.6549 60.2C76.7616 60.6667 76.7749 61.1467 76.6949 61.64L70.0549 62.7C70.0949 63.1 70.1683 63.4867 70.2749 63.86C70.3816 64.22 70.5083 64.5467 70.6549 64.84C71.0149 65.5067 71.4749 65.9867 72.0349 66.28C72.6083 66.56 73.1949 66.7 73.7949 66.7C74.4349 66.7 74.9749 66.5533 75.4149 66.26C75.8683 65.9533 76.2683 65.5867 76.6149 65.16L76.7149 65.24C76.3949 65.76 75.9216 66.22 75.2949 66.62C74.6683 67.02 73.8949 67.22 72.9749 67.22C72.3083 67.22 71.6749 67.1067 71.0749 66.88C70.4883 66.64 69.9883 66.28 69.5749 65.8C69.2283 65.4133 68.9549 64.9467 68.7549 64.4C68.5683 63.84 68.4749 63.1933 68.4749 62.46C68.4749 61.62 68.6416 60.8667 68.9749 60.2ZM70.0349 62.48L73.6549 61.8C73.8549 61.76 74.0283 61.7067 74.1749 61.64C74.3349 61.5733 74.4883 61.5067 74.6349 61.44C74.9549 61.28 75.1883 61.0733 75.3349 60.82C75.4816 60.5533 75.5483 60.28 75.5349 60C75.5216 59.3467 75.3349 58.86 74.9749 58.54C74.6149 58.2067 74.1883 58.0133 73.6949 57.96C73.2016 57.9067 72.6949 57.9733 72.1749 58.16C71.6549 58.3467 71.2349 58.6333 70.9149 59.02C70.5683 59.4333 70.3216 59.9533 70.1749 60.58C70.0416 61.1933 69.9949 61.8267 70.0349 62.48Z" fill="black"/>
</svg>
