<svg width="203" height="131" viewBox="0 0 203 131" fill="none" xmlns="http://www.w3.org/2000/svg">
<g style="mix-blend-mode:soft-light">
<path d="M213.852 17.9712C214.073 17.4093 213.863 16.7739 213.385 16.4483C213.303 16.3841 213.202 16.3428 213.113 16.3049C207.739 14.2297 201.71 12.9672 194.894 12.4821C194.726 12.423 194.548 12.4034 194.359 12.4233C194.346 12.4198 194.329 12.4295 194.316 12.4259C194.316 12.4259 194.286 12.4321 194.273 12.4286C191.207 12.2281 188.002 12.1742 184.6 12.279C178.718 12.4679 172.859 13.1004 167.059 14.1441C166.928 14.1088 166.783 14.07 166.637 14.0874C166.624 14.0839 166.607 14.0935 166.594 14.09L166.478 14.1012C166.478 14.1012 166.027 14.1499 165.232 14.2192C164.828 14.2521 164.344 14.32 163.798 14.3009C163.24 14.2783 162.617 14.3374 161.93 14.2663C161.243 14.1952 160.499 14.1794 159.724 14.0142C158.936 13.9016 158.122 13.7258 157.292 13.5035C156.442 13.3039 155.593 12.9918 154.721 12.7158C153.86 12.4003 152.976 12.0646 152.106 11.6762C149.423 10.5195 146.766 9.15839 144.398 8.1427C144.276 6.96631 143.69 4.19756 140.777 2.16046C139.767 1.45211 138.477 0.838283 136.844 0.400617C132.292 -0.790743 127.162 0.968811 125.811 2.21634C125.247 2.74273 125.185 3.2347 125.249 3.57648C125.463 4.8338 131.104 10.4397 136.316 11.7513C139.316 12.513 141.875 11.815 143.775 9.78278C146.003 10.8457 148.576 12.2554 151.267 13.5411C152.153 13.9761 153.057 14.3452 153.957 14.7275C154.867 15.0703 155.774 15.4264 156.683 15.6699C157.229 15.8445 157.74 15.9391 158.271 16.0671C156.773 16.4421 155.28 16.847 153.794 17.2818C153.596 17.2851 153.41 17.3481 153.229 17.441C145.377 19.77 137.733 22.8469 130.455 26.6147C130.356 26.6163 130.247 26.6012 130.092 26.6019C129.705 26.5689 129.134 26.4866 128.374 26.2687C128.005 26.1699 127.604 26.0341 127.157 25.8579C124.671 21.2246 120.945 17.1626 116.371 13.9463C111.925 10.8348 106.697 8.53066 101.042 7.29757C91.4374 5.20416 80.5253 5.93684 68.6032 9.49083C68.111 9.64134 67.7434 10.0651 67.6918 10.5737C67.6271 11.0787 67.8698 11.5956 68.3254 11.8447C76.9633 16.9123 85.8925 22.1567 95.5293 25.6566C105.196 29.1503 115.916 29.9758 125.778 28.0014C126.208 28.1873 126.619 28.3397 127.003 28.4851C124.562 29.85 122.147 31.2781 119.792 32.7933C119.666 32.8441 119.549 32.9115 119.451 33.0124C115.003 35.9148 110.745 39.108 106.701 42.5563C106.279 42.6551 105.273 42.8797 103.734 43.0887C102.942 43.2011 101.967 43.3071 100.924 43.4086C100.875 43.3251 100.827 43.2416 100.749 43.1642C99.262 41.7068 97.6473 40.3564 95.9111 39.143C87.2341 33.0625 75.6886 30.1524 63.88 31.2803C52.1048 32.3888 39.8763 37.2443 27.5311 45.6969C27.0994 45.9907 26.8923 46.4999 26.9962 47.0078C27.087 47.5122 27.487 47.9159 27.978 48.0333C39.7627 50.6828 51.9426 53.4381 64.2869 53.8939C78.3335 54.4246 90.4574 51.8565 100.326 46.2699C100.477 46.1831 100.608 46.0629 100.703 45.9189C101.61 45.8515 102.422 45.7725 103.165 45.6891C102.583 46.2251 101.992 46.7445 101.424 47.2841C98.3276 50.2522 95.367 53.3978 92.5047 56.598C92.4475 56.6533 92.3903 56.7086 92.3428 56.7806C89.7198 59.7203 87.1591 62.6907 84.652 65.6191C83.4371 67.0443 82.1889 68.4887 80.9406 69.9331C80.4038 69.9869 79.4761 70.0773 78.1056 70.1336C77.0892 70.186 75.855 70.2082 74.4495 70.1845C73.3412 69.2099 72.1924 68.2808 70.9926 67.437C62.1031 61.2008 50.5407 58.5121 37.8622 59.8304C25.8365 61.0836 13.3873 66.0777 0.870526 74.6961C0.385226 75.0319 0.189467 75.657 0.391712 76.2195C0.597489 76.7688 1.15402 77.1157 1.75056 77.0496C7.59393 76.3705 12.738 77.9323 18.1851 79.5754C21.5422 80.5879 25.0011 81.6419 28.776 82.2016C34.5868 83.0668 45.6188 82.6767 51.2446 81.7558C61.3751 80.0936 67.1605 77.9447 75.0225 72.8934C75.1096 72.832 75.1606 72.7469 75.2345 72.682C76.329 72.7071 77.3445 72.7108 78.1983 72.6855C78.3275 72.6777 78.4267 72.6762 78.5559 72.6684C77.3587 74.0277 76.158 75.4002 74.9415 76.7261C74.8878 76.7682 74.7938 76.8558 74.5924 77.0278C74.3242 77.2383 73.9742 77.5963 73.4484 77.9778C72.9358 78.3628 72.3124 78.8453 71.5502 79.3187C70.8073 79.8256 69.9221 80.3366 68.9437 80.8792C65.0136 83.0592 59.2976 85.2125 53.4616 87.023C47.971 88.7567 42.3788 90.2371 38.0806 91.6832C37.7807 91.2216 37.1177 90.324 36.0126 89.5479C35.4175 89.1343 34.6898 88.7417 33.8371 88.4991C31.4047 87.7767 28.644 88.2794 25.6218 89.9685C18.9394 93.7264 15.6376 97.8818 15.3412 100.358C15.2118 101.368 15.5888 101.963 15.9275 102.28C17.9658 104.209 27.9484 104.258 33.8318 101.006C37.3145 99.0736 38.8868 96.2618 38.435 92.837C42.7339 91.5465 48.3426 90.268 53.956 88.7085C59.775 87.1193 65.5469 85.1787 69.737 83.0825C69.7167 83.1053 69.6965 83.128 69.693 83.1412C69.5331 83.2113 69.3827 83.2981 69.2481 83.4315C66.8945 85.8927 62.9942 88.0665 57.3398 90.0951C52.9202 91.6781 48.3477 93.3048 44.2641 95.9519C40.1305 98.628 36.7363 102.18 33.4564 105.621L12.108 127.968C11.7342 128.362 11.6448 128.959 11.8814 129.446C12.118 129.933 12.6491 130.217 13.1894 130.15C21.7273 129.162 30.5139 128.142 39.0764 126.483C46.8823 124.961 55.5968 122.524 60.994 115.922C64.8174 111.243 66.3179 105.221 67.6446 99.9013L71.2804 85.3313C71.5206 85.0144 71.7906 84.6916 72.0273 84.3879C74.0349 81.8481 75.6168 79.8436 76.813 78.5405C78.7473 76.4328 80.6526 74.2749 82.5316 72.1101C82.6054 72.0451 82.6661 71.9768 82.7172 71.8916C84.0428 70.3691 85.3553 68.8431 86.6343 67.3363C88.4596 65.2135 90.3052 63.0678 92.1771 60.9293C92.2053 61.6145 92.2254 62.3823 92.2472 63.2494C83.1446 73.6156 83.0477 89.9951 83.0101 97.9336C82.9932 100.315 83.0817 102.725 83.1746 105.065C83.3898 110.954 83.6083 117.041 82.232 122.757C82.0863 123.353 82.3833 123.983 82.9514 124.234C83.5159 124.498 84.1873 124.311 84.5463 123.814L95.1686 109.041C97.8919 105.253 100.703 101.347 102.509 96.8754C106.809 86.2531 103.444 71.7276 94.687 62.9432C94.6829 62.0102 94.6707 61.1599 94.6628 60.4518C94.6615 59.3503 94.658 58.5728 94.6428 58.1028C97.4004 55.0298 100.24 52.021 103.202 49.1863C107.492 45.0838 112.104 41.3077 116.948 37.8761C116.036 39.9613 115.092 42.5884 114.274 45.2211C113.365 48.1399 112.355 50.9611 111.36 53.0383C110.721 52.8953 109.734 52.786 108.648 53.2011C107.25 53.73 106.135 54.9419 105.343 56.791C103.615 60.8175 103.613 63.8805 104.383 65.1174C104.785 65.7759 105.345 65.8979 105.626 65.9026C106.952 65.9613 111.976 62.0695 113.363 58.6856C114.153 56.7373 113.834 55.0283 112.501 53.6827C113.664 51.6083 114.89 48.718 115.987 45.8354C117.102 42.8869 118.34 40.0563 119.436 38.0205C120.225 36.5518 120.865 35.4807 121.178 34.9997C129.856 29.3766 139.244 24.8472 149.046 21.5156C148.483 22.1412 147.882 22.8555 147.25 23.6322C147.174 23.6541 147.108 23.6365 147.028 23.6715C137.27 27.7912 127.979 37.5422 122.2 49.7307C119.343 55.7561 117.155 62.1302 115.037 68.297C113.492 72.7963 111.893 77.4502 110.064 81.9018C109.83 82.4602 110.015 83.0885 110.511 83.4475L110.525 83.4511C111.012 83.7934 111.671 83.758 112.114 83.3685L125.545 71.7057C128.896 68.7915 132.37 65.7834 135.485 62.4815C144.754 52.654 149.48 39.548 148.85 25.5149C150.156 23.959 151.335 22.6656 152.291 21.7356C153.29 20.7468 153.988 20.1433 154.35 19.845C164.217 16.9544 174.414 15.2537 184.671 14.9102C185.211 14.8994 185.72 14.8947 186.243 14.8935C186.029 15.0057 185.836 15.0951 185.619 15.2204C184.704 15.7376 183.754 16.3304 182.846 17.0329C181.928 17.7188 181.042 18.4978 180.194 19.3436C179.336 20.1727 178.531 21.0721 177.784 22.0156C176.267 23.8822 174.947 25.858 173.8 27.7672C173.463 28.3404 173.142 28.904 172.826 29.4544C170.904 28.8267 165.216 27.7683 161.383 35.1699C158.6 40.5515 158.925 49.1379 161.089 50.4942C163.024 51.6481 168.71 48.1877 172.013 44.5548C176.337 39.7979 177.043 34.7917 174.096 30.4021C174.463 29.8228 174.817 29.2398 175.205 28.6376C176.383 26.8216 177.731 24.9521 179.235 23.2374C179.974 22.3766 180.772 21.5596 181.595 20.806C182.405 20.0489 183.253 19.3587 184.117 18.7711C184.961 18.1502 185.842 17.6523 186.68 17.2132C187.521 16.761 188.367 16.4509 189.139 16.1496C189.924 15.9081 190.653 15.6657 191.31 15.5312C191.977 15.4134 192.542 15.2541 193.019 15.2126C193.645 15.1404 194.066 15.0979 194.302 15.0621C201.029 15.5094 206.93 16.7236 212.149 18.7433C212.85 18.9734 213.603 18.6385 213.852 17.9712ZM171.875 31.1056C171.507 31.7412 171.156 32.3671 170.819 32.9403C169.07 35.9873 167.892 38.0152 167.892 38.0152C167.715 38.3066 167.814 38.6722 168.106 38.8491C168.384 39.0225 168.763 38.9263 168.936 38.648C168.936 38.648 170.174 36.6642 172.043 33.692C172.339 33.2207 172.662 32.7001 172.985 32.1796C174.516 34.9477 174.314 37.9148 172.323 41.0239C169.262 45.8087 163.168 49.0041 162.001 48.7761C161.206 48.0548 160.52 41.0238 163.106 36.0127C166.098 30.2212 170.17 30.6204 171.875 31.1056ZM115.872 76.667C116.633 75.4591 117.473 74.1171 118.378 72.6371C122.16 66.4784 127.01 58.1776 131.945 49.9278C133.187 47.8746 134.442 45.8249 135.674 43.8112C136.922 41.7879 138.148 39.8999 139.472 38.0664C141.909 34.5547 144.223 31.3485 146.336 28.6252C146.177 40.8091 141.744 52.0874 133.623 60.6839C130.589 63.8945 127.168 66.8604 123.871 69.7325L115.872 76.667ZM143.578 28.3803C141.726 30.9194 139.742 33.7904 137.706 36.859C136.434 38.7067 135.153 40.7493 133.961 42.7736C132.762 44.8242 131.556 46.9011 130.334 48.9877C125.542 57.3325 120.853 65.7187 117.199 71.9258C116.623 72.9152 116.082 73.829 115.568 74.6937C116.224 72.8225 116.878 70.9644 117.514 69.116C119.602 63.0115 121.772 56.7034 124.564 50.8159C128.21 43.1101 134.92 33.7689 143.578 28.3803ZM110.47 54.8329C110.296 55.1674 110.129 55.4755 109.989 55.7345C109.644 56.334 109.453 56.6782 109.453 56.6782C109.313 56.9372 109.397 57.2561 109.656 57.3961C109.902 57.5325 110.218 57.4617 110.367 57.2195C110.367 57.2195 110.585 56.8824 110.952 56.3031C111.114 56.0643 111.312 55.7501 111.519 55.3963C111.884 55.9317 111.976 56.5353 111.812 57.2537C111.198 59.9691 107.279 63.0557 105.916 63.8201C105.701 63.0424 105.678 60.862 107.107 57.5318C107.692 56.192 108.434 55.3179 109.33 54.979C109.752 54.8241 110.153 54.8044 110.47 54.8329ZM93.0472 107.527L86.7471 116.286C87.0661 115.412 87.4088 114.501 87.7728 113.512C88.2446 112.014 88.7517 110.385 89.2966 108.668C89.7494 106.925 90.2435 105.081 90.7386 103.181C91.1414 101.256 91.641 99.2861 91.9896 97.2476C92.3645 95.2162 92.7332 93.155 93.0098 91.069C93.6156 86.9112 94.0168 82.7267 94.2649 78.7977C94.5392 74.8757 94.6209 71.1987 94.6739 68.0504C94.6779 67.6139 94.681 67.2335 94.6815 66.8101C101.362 74.9674 103.724 86.9654 100.1 95.9054C98.4024 100.081 95.6825 103.856 93.0472 107.527ZM92.3347 67.2964C92.3405 67.538 92.3464 67.7796 92.3522 68.0212C92.3792 71.1345 92.3942 74.7669 92.2261 78.6609C92.0748 82.5452 91.7966 86.6921 91.3006 90.8088C91.0873 92.8693 90.7783 94.9184 90.4632 96.9376C90.1744 98.9638 89.7214 100.918 89.3915 102.834C88.9394 104.732 88.5217 106.554 88.112 108.294C87.6233 110.012 87.1628 111.626 86.7341 113.12C86.4 114.104 86.0836 115.021 85.7944 115.89C86.0149 112.222 85.8981 108.548 85.7768 104.943C85.6899 102.633 85.6111 100.24 85.6139 97.9112C85.6257 90.9117 85.6978 76.9962 92.3347 67.2964ZM36.171 92.3291C34.4872 92.9227 33.059 93.4577 32.0263 93.887C30.7739 94.3985 30.0698 94.7604 30.0698 94.7604C29.8396 94.8822 29.7523 95.1553 29.8741 95.3856C29.9828 95.6124 30.2559 95.6997 30.4826 95.5911C30.4826 95.5911 31.1462 95.2748 32.4012 94.8064C33.4364 94.4202 34.8672 93.9282 36.5632 93.3943C36.7632 95.8621 35.5389 97.8495 32.8877 99.3134C27.385 102.357 18.6731 101.886 17.3065 100.927C17.2705 100.903 17.2477 100.883 17.2249 100.863C16.863 100.158 19.0062 95.848 26.5466 91.6281C29.0879 90.2055 31.3417 89.7504 33.2508 90.3184C34.7287 90.7567 35.6851 91.7189 36.171 92.3291ZM18.9277 77.1201C15.7023 76.1429 12.404 75.1745 8.92592 74.6661C10.4258 74.3903 12.1242 74.1112 13.978 73.8314C21.4067 72.7159 31.3992 71.7792 41.4296 71.5444C46.4405 71.3905 51.4511 71.4483 56.1427 71.5901C58.4898 71.6825 60.7614 71.7406 62.8888 71.9154C65.046 72.084 67.0813 72.2339 68.961 72.3846C69.5556 72.431 70.1275 72.4572 70.6958 72.4965C64.5186 76.1074 59.3627 77.8037 50.8146 79.1981C45.484 80.0711 34.6338 80.4675 29.1497 79.6475C25.5628 79.124 22.1926 78.1079 18.9277 77.1201ZM70.1707 70.0828C69.807 70.07 69.4732 70.0512 69.1095 70.0385C67.2324 69.9309 65.1902 69.8072 63.039 69.6685C60.8484 69.5191 58.5627 69.5136 56.205 69.4608C51.4658 69.391 46.4138 69.4351 41.3818 69.668C31.2923 70.0706 21.2468 71.2049 13.7829 72.4521C11.2718 72.8664 9.098 73.2863 7.25542 73.682C17.7439 67.259 28.1053 63.4705 38.1261 62.4283C50.4997 61.1413 61.7011 63.8603 70.1707 70.0828ZM64.3831 51.3219C53.9695 50.9317 43.5809 48.868 33.4533 46.6202C35.3994 46.3652 37.8189 46.0818 40.6022 45.8111C44.2868 45.443 48.5934 45.0721 53.2249 44.8589C55.5292 44.7422 57.9186 44.6766 60.3361 44.7173C62.6841 44.7535 65.2288 44.8989 67.6787 44.9765C72.6241 45.1721 77.5828 45.3712 82.2243 45.5419C84.545 45.6272 86.7929 45.7213 88.9151 45.81C91.0373 45.8986 93.0708 45.9494 94.8882 46.0693C94.9444 46.0702 95.0006 46.0712 95.0437 46.0686C86.3705 49.9849 76.0826 51.7602 64.3831 51.3219ZM97.4395 43.6609C96.655 43.6907 95.8477 43.7003 95.0378 43.6668C93.1405 43.5819 91.1525 43.5717 89.0232 43.5094C86.8904 43.4603 84.6452 43.4094 82.327 43.3671C77.681 43.2657 72.7276 43.1527 67.7741 43.0396C65.2741 42.9909 62.8576 42.894 60.34 42.9111C57.8821 42.9161 55.4653 43.031 53.1373 43.1837C48.4847 43.4759 44.1569 43.9258 40.4581 44.3465C37.4551 44.6996 34.9054 45.047 32.889 45.3538C43.5464 38.722 54.0415 34.8562 64.1404 33.8914C76.7906 32.6785 89.0582 36.3185 97.4395 43.6609ZM96.4036 23.2366C88.6046 20.4127 81.2296 16.3754 74.0814 12.2294C75.6623 12.4412 77.6253 12.7553 79.9079 13.1411C82.8035 13.6628 86.1663 14.3381 89.7344 15.1953C93.3096 16.0262 97.0891 17.0955 100.841 18.2138C104.59 19.3454 108.304 20.6085 111.753 21.8574C113.475 22.4884 115.125 23.1282 116.696 23.7467C118.26 24.3916 119.719 24.9521 120.982 25.6151C121.254 25.7586 121.503 25.8819 121.775 26.0254C113.364 27.1178 104.499 26.168 96.4036 23.2366ZM122.756 23.7891C122.519 23.6693 122.306 23.5698 122.06 23.4334C120.676 22.7518 119.147 22.1869 117.563 21.5649C115.972 20.9691 114.276 20.3452 112.519 19.7335C109.004 18.5231 105.233 17.3152 101.427 16.2389C97.6176 15.1758 93.7809 14.1619 90.1486 13.3862C86.5268 12.5711 83.1165 11.9678 80.184 11.4785C77.904 11.1358 75.9172 10.8577 74.3424 10.6757C83.8806 8.43125 92.6585 8.12898 100.486 9.84517C109.784 11.8706 117.802 16.984 122.756 23.7891ZM142.295 7.29678C140.977 6.78834 139.729 6.43988 138.958 6.26152C138.135 6.06903 137.667 5.97189 137.667 5.97189C137.255 5.87565 136.86 6.1369 136.764 6.54877C136.671 6.94748 136.919 7.33873 137.314 7.44462C137.314 7.44462 137.775 7.56815 138.592 7.78699C139.422 8.00935 140.458 8.35749 141.779 8.90898C141.805 8.91604 141.841 8.93981 141.867 8.94687C140.79 9.85828 139.523 10.2671 138.01 10.1159C133.552 9.68367 128.585 5.03503 127.345 3.4462C128.509 2.6851 132.615 1.27228 136.363 2.24833C140.529 3.3505 141.858 5.76775 142.295 7.29678ZM19.7599 126.757C27.069 123.506 39.0263 117.66 49.3444 108.975C56.4477 103.014 62.5656 96.0414 67.3954 90.1353L65.1251 99.2403C63.869 104.297 62.4329 110.025 58.9879 114.241C54.1141 120.206 45.9383 122.477 38.5805 123.908C32.3807 125.127 26.0347 125.996 19.7599 126.757ZM64.1153 90.0471C59.5742 95.5082 54.0089 101.683 47.6874 106.992C36.7556 116.176 23.8614 123.042 17.5057 126.054L35.3254 107.393C38.5041 104.065 41.7971 100.628 45.6767 98.1093C49.5027 95.6332 53.9355 94.0538 58.2154 92.5181C60.4151 91.7381 62.3741 90.9076 64.1153 90.0471Z" fill="white"/>
</g>
</svg>
