<svg width="44" height="40" viewBox="0 0 44 40" fill="none" xmlns="http://www.w3.org/2000/svg">
<path d="M28.0004 17V14C28.0004 11.7909 26.2095 10 24.0004 10C21.7912 10 20.0004 11.7909 20.0004 14V17M15.5924 18.352L14.9924 24.752C14.8218 26.5717 14.7365 27.4815 15.0384 28.1843C15.3037 28.8016 15.7685 29.3121 16.3584 29.6338C17.0299 30 17.9437 30 19.7714 30H28.2293C30.057 30 30.9708 30 31.6423 29.6338C32.2322 29.3121 32.6971 28.8016 32.9623 28.1843C33.2643 27.4815 33.179 26.5717 33.0084 24.752L32.4084 18.352C32.2643 16.8153 32.1923 16.047 31.8467 15.4662C31.5424 14.9546 31.0927 14.5451 30.555 14.2898C29.9444 14 29.1727 14 27.6293 14L20.3714 14C18.8281 14 18.0564 14 17.4458 14.2898C16.908 14.5451 16.4584 14.9546 16.154 15.4662C15.8085 16.047 15.7364 16.8153 15.5924 18.352Z" stroke="#525252" stroke-width="2" stroke-linecap="round" stroke-linejoin="round"/>
<circle cx="30" cy="18" r="6" fill="black"/>
<path d="M31.89 15.225C31.89 15.3517 31.85 15.4567 31.77 15.54C31.69 15.62 31.555 15.66 31.365 15.66H29.115L28.785 17.54C29.1583 17.46 29.5033 17.42 29.82 17.42C30.1933 17.42 30.5217 17.475 30.805 17.585C31.0917 17.695 31.3317 17.8467 31.525 18.04C31.7183 18.2333 31.8633 18.4617 31.96 18.725C32.06 18.9883 32.11 19.275 32.11 19.585C32.11 19.965 32.0433 20.3083 31.91 20.615C31.7767 20.9217 31.5933 21.185 31.36 21.405C31.13 21.6217 30.8583 21.7883 30.545 21.905C30.2317 22.0217 29.8933 22.08 29.53 22.08C29.32 22.08 29.1183 22.0583 28.925 22.015C28.7317 21.975 28.5517 21.92 28.385 21.85C28.2183 21.78 28.0633 21.7 27.92 21.61C27.7767 21.52 27.65 21.425 27.54 21.325L27.81 20.945C27.87 20.8583 27.95 20.815 28.05 20.815C28.1133 20.815 28.1867 20.8417 28.27 20.895C28.3567 20.945 28.46 21.0017 28.58 21.065C28.7 21.1283 28.84 21.1867 29 21.24C29.1633 21.29 29.3567 21.315 29.58 21.315C29.83 21.315 30.055 21.275 30.255 21.195C30.455 21.115 30.625 21.0017 30.765 20.855C30.9083 20.705 31.0183 20.5267 31.095 20.32C31.1717 20.1133 31.21 19.8817 31.21 19.625C31.21 19.4017 31.1767 19.2 31.11 19.02C31.0467 18.84 30.9483 18.6867 30.815 18.56C30.685 18.4333 30.5217 18.335 30.325 18.265C30.1283 18.195 29.8983 18.16 29.635 18.16C29.455 18.16 29.2683 18.175 29.075 18.205C28.8817 18.235 28.6817 18.2833 28.475 18.35L27.915 18.185L28.495 14.835H31.89V15.225Z" fill="white"/>
</svg>
